<svg width="42" height="31" viewBox="0 0 42 31" fill="none" xmlns="http://www.w3.org/2000/svg">
<rect x="0.5" y="1" width="41" height="29" rx="3.5" fill="white" stroke="#B2BCCA"/>
<path fill-rule="evenodd" clip-rule="evenodd" d="M18.0535 23.5605L18.3261 21.7491L17.7188 21.7343H14.8184L16.834 8.36724C16.8403 8.32677 16.8606 8.28919 16.8903 8.26246C16.92 8.23573 16.958 8.22107 16.9977 8.22107H21.8882C23.5119 8.22107 24.6324 8.57436 25.2173 9.27179C25.4915 9.59897 25.6662 9.94096 25.7508 10.3172C25.8394 10.712 25.8409 11.1837 25.7544 11.7591L25.7481 11.8009V12.1696L26.0224 12.3322C26.2533 12.4603 26.4369 12.6069 26.5777 12.7748C26.8122 13.0546 26.9639 13.4102 27.028 13.8316C27.0943 14.2651 27.0724 14.7811 26.9639 15.3652C26.8388 16.0369 26.6365 16.6221 26.3633 17.1008C26.1121 17.5419 25.7919 17.9079 25.4118 18.1914C25.0489 18.4608 24.6178 18.6654 24.1303 18.7963C23.6578 18.9249 23.1192 18.9898 22.5285 18.9898H22.1479C21.8758 18.9898 21.6115 19.0923 21.404 19.276C21.1959 19.4636 21.0583 19.7199 21.0161 20.0002L20.9873 20.1633L20.5055 23.3561L20.4838 23.4733C20.4779 23.5104 20.468 23.5289 20.4534 23.5414C20.4404 23.5528 20.4217 23.5605 20.4034 23.5605H18.0535Z" fill="#28356A"/>
<path fill-rule="evenodd" clip-rule="evenodd" d="M26.2824 11.8434C26.268 11.941 26.2512 12.0408 26.2325 12.1433C25.5876 15.6066 23.381 16.803 20.563 16.803H19.1281C18.7835 16.803 18.493 17.0647 18.4394 17.4203L17.4967 23.6743C17.4618 23.9079 17.6338 24.1182 17.859 24.1182H20.404C20.7052 24.1182 20.9613 23.8892 21.0087 23.5784L21.0337 23.4432L21.5129 20.263L21.5437 20.0885C21.5905 19.7766 21.8471 19.5475 22.1484 19.5475H22.529C24.9946 19.5475 26.9249 18.5006 27.489 15.4708C27.7246 14.2052 27.6027 13.1483 26.9791 12.4051C26.7904 12.181 26.5563 11.995 26.2824 11.8434Z" fill="#2F80ED"/>
<path fill-rule="evenodd" clip-rule="evenodd" d="M25.6079 11.5622C25.5093 11.5321 25.4077 11.5049 25.3034 11.4803C25.1986 11.4563 25.0912 11.4351 24.9807 11.4164C24.5938 11.3511 24.1698 11.3201 23.7158 11.3201H19.8826C19.7881 11.3201 19.6985 11.3424 19.6183 11.3827C19.4414 11.4716 19.3102 11.6466 19.2783 11.8609L18.4628 17.2629L18.4395 17.4203C18.4931 17.0647 18.7835 16.8031 19.1282 16.8031H20.563C23.3811 16.8031 25.5876 15.606 26.2325 12.1434C26.2518 12.0409 26.268 11.9411 26.2825 11.8435C26.1194 11.7529 25.9426 11.6755 25.7524 11.6095C25.7053 11.5932 25.6568 11.5774 25.6079 11.5622Z" fill="#28356A"/>
<path fill-rule="evenodd" clip-rule="evenodd" d="M19.2782 11.861C19.31 11.6467 19.4413 11.4716 19.6182 11.3833C19.6989 11.3429 19.788 11.3206 19.8825 11.3206H23.7157C24.1697 11.3206 24.5937 11.3517 24.9805 11.4171C25.0911 11.4356 25.1984 11.457 25.3033 11.4809C25.4076 11.5054 25.5092 11.5327 25.6078 11.5627C25.6567 11.5779 25.7052 11.5938 25.7526 11.6095C25.9429 11.6755 26.1198 11.7536 26.2829 11.8435C26.4748 10.5637 26.2813 9.69231 25.6198 8.90324C24.8903 8.03444 23.5738 7.66266 21.8893 7.66266H16.9986C16.6545 7.66266 16.361 7.92431 16.3078 8.28051L14.2708 21.785C14.2307 22.0521 14.4277 22.2932 14.6853 22.2932H17.7046L19.2782 11.861Z" fill="#28356A"/>
</svg>
