<svg width="41" height="31" viewBox="0 0 41 31" fill="none" xmlns="http://www.w3.org/2000/svg">
<rect x="1" y="1" width="39" height="29" rx="3.5" fill="white" stroke="#B2BCCA"/>
<path fill-rule="evenodd" clip-rule="evenodd" d="M13.1468 20.3228H10.7236L8.90643 12.7404C8.82018 12.3916 8.63705 12.0833 8.36768 11.938C7.69541 11.5727 6.95462 11.2821 6.14648 11.1355V10.8436H10.0501C10.5889 10.8436 10.9929 11.2821 11.0603 11.7914L12.0031 17.2608L14.4251 10.8436H16.781L13.1468 20.3228ZM18.128 20.3228H15.8394L17.7239 10.8436H20.0124L18.128 20.3228ZM22.9732 13.4696C23.0406 12.9591 23.4446 12.6672 23.916 12.6672C24.6568 12.5939 25.4638 12.7405 26.1372 13.1044L26.5413 11.0635C25.8679 10.7716 25.1271 10.625 24.4548 10.625C22.2336 10.625 20.6173 11.938 20.6173 13.7603C20.6173 15.1466 21.7622 15.8745 22.5703 16.313C23.4446 16.7503 23.7814 17.0422 23.714 17.4794C23.714 18.1353 23.0406 18.4272 22.3683 18.4272C21.5602 18.4272 20.752 18.2086 20.0124 17.8434L19.6084 19.8856C20.4165 20.2495 21.2908 20.3961 22.0989 20.3961C24.5895 20.4681 26.1372 19.1564 26.1372 17.1875C26.1372 14.7081 22.9732 14.5628 22.9732 13.4696ZM34.1464 20.3228L32.3293 10.8436H30.3775C29.9734 10.8436 29.5693 11.1355 29.4346 11.5727L26.0698 20.3228H28.4256L28.8959 18.9377H31.7905L32.0599 20.3228H34.1464ZM30.7143 13.3962L31.3866 16.9688H29.5021L30.7143 13.3962Z" fill="#28356A"/>
</svg>
