<svg width="22" height="15" viewBox="0 0 22 15" fill="none" xmlns="http://www.w3.org/2000/svg">
<path fill-rule="evenodd" clip-rule="evenodd" d="M0.5 7.49997C0.5 7.30106 0.579018 7.11029 0.71967 6.96964C0.860322 6.82899 1.05109 6.74997 1.25 6.74997H18.9395L14.219 2.03097C14.0782 1.89014 13.9991 1.69913 13.9991 1.49997C13.9991 1.30081 14.0782 1.1098 14.219 0.968971C14.3598 0.828141 14.5508 0.749023 14.75 0.749023C14.9492 0.749023 15.1402 0.828141 15.281 0.968971L21.281 6.96897C21.3508 7.03864 21.4063 7.1214 21.4441 7.21252C21.4819 7.30364 21.5013 7.40132 21.5013 7.49997C21.5013 7.59862 21.4819 7.6963 21.4441 7.78742C21.4063 7.87854 21.3508 7.9613 21.281 8.03097L15.281 14.031C15.1402 14.1718 14.9492 14.2509 14.75 14.2509C14.5508 14.2509 14.3598 14.1718 14.219 14.031C14.0782 13.8901 13.9991 13.6991 13.9991 13.5C13.9991 13.3008 14.0782 13.1098 14.219 12.969L18.9395 8.24997H1.25C1.05109 8.24997 0.860322 8.17095 0.71967 8.0303C0.579018 7.88965 0.5 7.69888 0.5 7.49997Z" fill="#FA8B02"/>
</svg>
