<svg width="100" height="100" viewBox="0 0 100 100" fill="none" xmlns="http://www.w3.org/2000/svg">
<path fill-rule="evenodd" clip-rule="evenodd" d="M49.9993 4.16669C24.6868 4.16669 4.16602 24.6875 4.16602 50C4.16602 75.3125 24.6868 95.8334 49.9993 95.8334C75.3118 95.8334 95.8327 75.3125 95.8327 50C95.8327 24.6875 75.3118 4.16669 49.9993 4.16669ZM69.866 42.25C70.2318 41.8319 70.5103 41.3448 70.6851 40.8174C70.8599 40.29 70.9275 39.733 70.8838 39.1791C70.8402 38.6252 70.6862 38.0857 70.4309 37.5922C70.1757 37.0987 69.8243 36.6613 69.3975 36.3056C68.9706 35.9499 68.477 35.6832 67.9456 35.5211C67.4142 35.359 66.8557 35.3049 66.303 35.3618C65.7504 35.4187 65.2147 35.5856 64.7275 35.8527C64.2402 36.1197 63.8113 36.4815 63.466 36.9167L45.5493 58.4125L36.2785 49.1375C35.4927 48.3785 34.4402 47.9585 33.3477 47.968C32.2552 47.9775 31.2101 48.4157 30.4376 49.1883C29.6651 49.9608 29.2269 51.0059 29.2174 52.0983C29.2079 53.1908 29.6279 54.2433 30.3868 55.0292L42.8868 67.5292C43.2963 67.9383 43.7864 68.2577 44.3261 68.4669C44.8657 68.6762 45.4431 68.7707 46.0213 68.7444C46.5995 68.7181 47.1659 68.5717 47.6844 68.3144C48.2029 68.0571 48.6621 67.6946 49.0327 67.25L69.866 42.25Z" fill="#FA8B02"/>
</svg>
