<svg width="13" height="13" viewBox="0 0 13 13" fill="none" xmlns="http://www.w3.org/2000/svg">
<path d="M7.94002 6.08001L12.8 1.22001C12.9092 1.09247 12.9663 0.928423 12.9598 0.760639C12.9533 0.592855 12.8838 0.433696 12.7651 0.314966C12.6463 0.196237 12.4872 0.126681 12.3194 0.1202C12.1516 0.11372 11.9876 0.170791 11.86 0.280008L7.00002 5.14001L2.14002 0.273342C2.01249 0.164124 1.84844 0.107054 1.68065 0.113534C1.51287 0.120015 1.35371 0.18957 1.23498 0.308299C1.11625 0.427029 1.0467 0.586188 1.04022 0.753972C1.03373 0.921756 1.09081 1.08581 1.20002 1.21334L6.06002 6.08001L1.19336 10.94C1.12357 10.9998 1.06689 11.0733 1.02687 11.156C0.986857 11.2387 0.96437 11.3288 0.960824 11.4206C0.957278 11.5125 0.972748 11.604 1.00626 11.6896C1.03978 11.7751 1.09062 11.8528 1.15559 11.9178C1.22056 11.9827 1.29826 12.0336 1.38381 12.0671C1.46936 12.1006 1.56091 12.1161 1.65273 12.1125C1.74454 12.109 1.83463 12.0865 1.91734 12.0465C2.00005 12.0065 2.07359 11.9498 2.13336 11.88L7.00002 7.02001L11.86 11.88C11.9876 11.9892 12.1516 12.0463 12.3194 12.0398C12.4872 12.0333 12.6463 11.9638 12.7651 11.8451C12.8838 11.7263 12.9533 11.5672 12.9598 11.3994C12.9663 11.2316 12.9092 11.0675 12.8 10.94L7.94002 6.08001Z" fill="#333333"/>
</svg>
