<svg width="24" height="25" viewBox="0 0 24 25" fill="none" xmlns="http://www.w3.org/2000/svg">
<g opacity="0.4">
<path d="M11.9063 14.7051C12.6025 14.7051 13.2701 14.4286 13.7624 13.9363C14.2547 13.444 14.5313 12.7763 14.5313 12.0801C14.5313 12.0033 14.5277 11.9271 14.5212 11.8519L11.678 14.6951C11.7532 14.7016 11.8292 14.7051 11.9063 14.7051ZM20.595 3.96046L19.5938 2.96015C19.5586 2.92501 19.5109 2.90527 19.4612 2.90527C19.4115 2.90527 19.3638 2.92501 19.3287 2.96015L16.7665 5.52304C15.3531 4.80069 13.7642 4.43952 12 4.43952C7.49533 4.43952 4.13439 6.78562 1.9172 11.4778C1.82808 11.6665 1.78186 11.8726 1.78186 12.0813C1.78186 12.29 1.82808 12.4961 1.9172 12.6848C2.80314 14.5509 3.86994 16.0466 5.11759 17.1719L2.63814 19.6505C2.603 19.6856 2.58326 19.7333 2.58326 19.783C2.58326 19.8327 2.603 19.8804 2.63814 19.9155L3.63869 20.9161C3.67384 20.9512 3.72152 20.971 3.77122 20.971C3.82093 20.971 3.8686 20.9512 3.90376 20.9161L20.595 4.22577C20.6124 4.20836 20.6263 4.18768 20.6357 4.16492C20.6451 4.14216 20.65 4.11776 20.65 4.09312C20.65 4.06848 20.6451 4.04408 20.6357 4.02131C20.6263 3.99855 20.6124 3.97787 20.595 3.96046ZM7.78126 12.0801C7.7812 11.3677 7.96568 10.6673 8.31673 10.0473C8.66779 9.42731 9.17345 8.90881 9.78445 8.54232C10.3955 8.17584 11.091 7.97386 11.8032 7.95606C12.5155 7.93826 13.2202 8.10526 13.8488 8.44077L12.7092 9.5803C12.2497 9.43315 11.7585 9.41543 11.2895 9.52908C10.8205 9.64273 10.3919 9.88337 10.0507 10.2246C9.70948 10.5658 9.46885 10.9944 9.3552 11.4634C9.24155 11.9323 9.25927 12.4236 9.40642 12.8831L8.26689 14.0226C7.94711 13.4252 7.78027 12.7578 7.78126 12.0801Z" fill="#333333"/>
<path d="M22.0828 11.4755C21.2578 9.73799 20.2759 8.32119 19.1369 7.2251L15.7587 10.6036C16.0434 11.348 16.1066 12.159 15.9404 12.9385C15.7742 13.718 15.3859 14.4327 14.8223 14.9963C14.2588 15.5599 13.544 15.9482 12.7645 16.1143C11.985 16.2805 11.1741 16.2174 10.4297 15.9326L7.56421 18.7981C8.89358 19.4132 10.3722 19.7208 12 19.7208C16.5047 19.7208 19.8656 17.3747 22.0828 12.6825C22.1719 12.4938 22.2182 12.2877 22.2182 12.079C22.2182 11.8703 22.1719 11.6642 22.0828 11.4755Z" fill="#333333"/>
</g>
</svg>
