<svg width="18" height="22" viewBox="0 0 18 22" fill="none" xmlns="http://www.w3.org/2000/svg">
<path d="M8.60003 22C7.05659 20.6835 5.62596 19.2402 4.32309 17.6852C2.36791 15.35 0.0461437 11.8722 0.0461437 8.55818C0.0452957 6.86568 0.546556 5.21097 1.48649 3.80347C2.42642 2.39596 3.76277 1.29893 5.32642 0.651204C6.89007 0.00347864 8.61072 -0.165823 10.2706 0.164725C11.9305 0.495274 13.4551 1.31081 14.6513 2.50813C15.4477 3.30103 16.079 4.24401 16.5086 5.28249C16.9381 6.32098 17.1575 7.43435 17.1539 8.55818C17.1539 11.8722 14.8322 15.35 12.877 17.6852C11.5741 19.2402 10.1435 20.6835 8.60003 22ZM8.60003 4.89222C7.62776 4.89222 6.69531 5.27846 6.00781 5.96596C5.32031 6.65346 4.93408 7.58591 4.93408 8.55818C4.93408 9.53045 5.32031 10.4629 6.00781 11.1504C6.69531 11.8379 7.62776 12.2241 8.60003 12.2241C9.5723 12.2241 10.5048 11.8379 11.1923 11.1504C11.8798 10.4629 12.266 9.53045 12.266 8.55818C12.266 7.58591 11.8798 6.65346 11.1923 5.96596C10.5048 5.27846 9.5723 4.89222 8.60003 4.89222Z" fill="#FA8B02"/>
</svg>
