<svg width="24" height="25" viewBox="0 0 24 25" fill="none" xmlns="http://www.w3.org/2000/svg">
<g opacity="0.8" clip-path="url(#clip0_245_25637)">
<path d="M4.66732 4.50002H15.334V11.0334H16.6673V4.50002C16.6673 4.1464 16.5268 3.80726 16.2768 3.55721C16.0267 3.30716 15.6876 3.16669 15.334 3.16669H4.66732C4.3137 3.16669 3.97456 3.30716 3.72451 3.55721C3.47446 3.80726 3.33398 4.1464 3.33398 4.50002V20.5C3.33398 20.8536 3.47446 21.1928 3.72451 21.4428C3.97456 21.6929 4.3137 21.8334 4.66732 21.8334H15.334C15.6876 21.8334 16.0267 21.6929 16.2768 21.4428C16.5268 21.1928 16.6673 20.8536 16.6673 20.5H4.66732V4.50002Z" fill="#333333"/>
<path d="M18.7739 12.02C18.6464 11.9108 18.4823 11.8537 18.3145 11.8602C18.1468 11.8667 17.9876 11.9362 17.8689 12.0549C17.7501 12.1737 17.6806 12.3328 17.6741 12.5006C17.6676 12.6684 17.7247 12.8325 17.8339 12.96L20.0872 15.1667H10.4206C10.2438 15.1667 10.0742 15.2369 9.94917 15.3619C9.82414 15.4869 9.75391 15.6565 9.75391 15.8333C9.75391 16.0101 9.82414 16.1797 9.94917 16.3047C10.0742 16.4297 10.2438 16.5 10.4206 16.5H20.0872L17.8339 18.8067C17.7641 18.8664 17.7074 18.94 17.6674 19.0227C17.6274 19.1054 17.6049 19.1955 17.6014 19.2873C17.5978 19.3791 17.6133 19.4707 17.6468 19.5562C17.6803 19.6418 17.7312 19.7194 17.7961 19.7844C17.8611 19.8494 17.9388 19.9002 18.0244 19.9337C18.1099 19.9673 18.2015 19.9827 18.2933 19.9792C18.3851 19.9756 18.4752 19.9532 18.5579 19.9131C18.6406 19.8731 18.7141 19.8164 18.7739 19.7467L22.6672 15.88L18.7739 12.02Z" fill="#333333"/>
</g>
<defs>
<clipPath id="clip0_245_25637">
<rect width="24" height="24" fill="white" transform="translate(0 0.5)"/>
</clipPath>
</defs>
</svg>
