<svg width="50" height="50" viewBox="0 0 50 50" fill="none" xmlns="http://www.w3.org/2000/svg">
<circle opacity="0.3" cx="25" cy="25" r="25" fill="#FA8B02"/>
<path d="M25.3808 27.4464L25.3809 27.4463L33.25 22.8153V30.3998C33.25 30.8374 33.0762 31.2571 32.7668 31.5665C32.4573 31.876 32.0376 32.0498 31.6 32.0498H18.4C17.9624 32.0498 17.5427 31.876 17.2333 31.5665C16.9239 31.2571 16.75 30.8374 16.75 30.3998V22.8177L24.6192 27.4463L24.6255 27.45L24.6322 27.4531L24.7306 27.4987L24.7303 27.4991L24.7418 27.5034C24.8459 27.5417 24.9572 27.5565 25.0677 27.5466C25.1782 27.5368 25.2851 27.5025 25.3808 27.4464ZM33.8274 18.5724C33.2367 17.9817 32.4355 17.6498 31.6 17.6498H18.4C17.5646 17.6498 16.7634 17.9817 16.1726 18.5724C15.5819 19.1632 15.25 19.9644 15.25 20.7998V30.3998C15.25 31.2352 15.5819 32.0365 16.1726 32.6272C16.7634 33.2179 17.5646 33.5498 18.4 33.5498H31.6C32.4355 33.5498 33.2367 33.2179 33.8274 32.6272C34.4182 32.0365 34.75 31.2352 34.75 30.3998V20.7998C34.75 19.9644 34.4182 19.1632 33.8274 18.5724ZM18.4 19.1498H31.6C32.0376 19.1498 32.4573 19.3236 32.7668 19.6331C33.0762 19.9425 33.25 20.3622 33.25 20.7998V21.074L25 25.9298L16.75 21.0764V20.7998C16.75 20.3622 16.9239 19.9425 17.2333 19.6331C17.5427 19.3236 17.9624 19.1498 18.4 19.1498Z" fill="#FA8B02" stroke="#FA8B02" stroke-width="0.3"/>
</svg>
