<svg width="23" height="20" viewBox="0 0 23 20" fill="none" xmlns="http://www.w3.org/2000/svg">
<path d="M3.76676 0.833008C2.7943 0.833008 1.86167 1.21932 1.17404 1.90695C0.486406 2.59458 0.100098 3.52721 0.100098 4.49967V4.86818L11.1001 10.7917L22.1001 4.87001V4.49967C22.1001 3.52721 21.7138 2.59458 21.0262 1.90695C20.3385 1.21932 19.4059 0.833008 18.4334 0.833008H3.76676ZM22.1001 6.95084L11.5346 12.6397C11.4011 12.7116 11.2518 12.7492 11.1001 12.7492C10.9484 12.7492 10.7991 12.7116 10.6656 12.6397L0.100098 6.95084V15.4997C0.100098 16.4721 0.486406 17.4048 1.17404 18.0924C1.86167 18.78 2.7943 19.1663 3.76676 19.1663H18.4334C19.4059 19.1663 20.3385 18.78 21.0262 18.0924C21.7138 17.4048 22.1001 16.4721 22.1001 15.4997V6.95084Z" fill="#FA8B02"/>
</svg>
