<svg width="25" height="18" viewBox="0 0 25 18" fill="none" xmlns="http://www.w3.org/2000/svg">
<path d="M8.42817 4.73351C9.12437 2.29281 10.5301 1.07246 12.56 1.09247C14.5246 1.11247 15.9277 2.3635 16.5705 4.73884C16.6559 4.49477 16.7119 4.32539 16.7732 4.15734C17.252 2.86631 18.179 2.09675 19.542 1.98472C20.7957 1.88336 21.8093 2.43418 22.4415 3.5225C23.1257 4.6935 23.0484 5.87517 22.2401 6.96081C21.96 7.33559 21.9827 7.43695 22.3988 7.64768C23.7966 8.35188 24.4821 9.52688 24.4968 11.0887C24.5154 13.0039 24.5141 13.0052 22.6656 13.6134C22.1827 13.7845 21.6821 13.9004 21.1732 13.9588C20.8677 13.9868 20.625 13.8868 20.577 13.568C20.529 13.2493 20.7317 13.0679 21.0304 13.0185C21.7556 12.91 22.4627 12.7036 23.1324 12.405C23.3098 12.3237 23.5325 12.2717 23.5325 12.0116C23.5325 11.2807 23.6259 10.5365 23.2924 9.84697C22.8803 8.99473 22.2321 8.4079 21.2705 8.2932C20.2753 8.1885 19.2721 8.18582 18.2763 8.28519C18.0118 8.31693 17.7544 8.39266 17.5148 8.50926C16.7346 8.86269 16.7252 8.98139 17.3134 9.60024C18.1173 10.417 18.5896 11.5029 18.6391 12.6478C18.6631 13.1813 18.5831 13.7228 18.6604 14.2482C18.7938 15.1192 18.3804 15.5019 17.6255 15.8194C14.0138 17.3371 10.4581 17.2718 6.91841 15.5966C6.49562 15.3966 6.31423 15.1445 6.34758 14.6737C6.38492 14.1402 6.36225 13.6067 6.34758 13.0732C6.32357 11.6061 6.82638 10.3685 7.91603 9.39884C8.2788 9.07609 8.16143 8.93204 7.85468 8.71598C6.84505 8.00378 3.58679 8.01978 2.58917 8.75199C1.68891 9.41752 1.16743 10.9833 1.47151 12.0556C1.54087 12.2957 1.73826 12.3437 1.90764 12.421C2.5365 12.7034 3.2011 12.8981 3.88287 12.9999C4.19763 13.0466 4.46704 13.1826 4.42303 13.5454C4.37368 13.9455 4.06026 13.9962 3.71749 13.9455C2.69586 13.7948 1.74493 13.4307 0.821995 12.9825C0.737409 12.9512 0.663762 12.8959 0.610012 12.8234C0.556263 12.751 0.524727 12.6645 0.519241 12.5744C0.531245 11.5368 0.367198 10.4858 0.821995 9.48687C1.19136 8.64323 1.86045 7.96653 2.69987 7.58766C2.96661 7.46362 3.09998 7.39694 2.85724 7.08352C1.96365 5.95519 1.84629 4.72417 2.5905 3.48248C3.23602 2.40618 4.25364 1.86335 5.50734 1.99139C6.98909 2.1421 7.91869 3.02102 8.31881 4.45476C8.33615 4.51745 8.36949 4.57613 8.42817 4.73351ZM12.504 9.1281C11.9705 9.1281 11.437 9.10943 10.9035 9.1281C9.96236 9.17327 9.07244 9.5702 8.41 10.2403C7.74755 10.9104 7.36087 11.8048 7.32652 12.7465C7.31185 13.1906 7.35587 13.6387 7.30785 14.0802C7.25184 14.5937 7.48124 14.8284 7.9307 15.0138C10.8155 16.1901 13.715 16.2541 16.6385 15.1818C17.6935 14.7937 17.6895 14.7817 17.6882 13.6867C17.6882 13.376 17.6882 13.0652 17.6802 12.7531C17.6465 11.8111 17.2604 10.9161 16.5981 10.2452C15.9359 9.57436 15.046 9.17663 14.1045 9.13077C13.571 9.1081 13.0375 9.1281 12.504 9.1281ZM15.5542 5.08027C15.5494 4.27096 15.2234 3.49668 14.6477 2.92778C14.0721 2.35889 13.294 2.04196 12.4847 2.04674C11.6753 2.05151 10.9011 2.3776 10.3322 2.95325C9.76328 3.5289 9.44636 4.30697 9.45113 5.11629C9.4618 6.76076 10.8862 8.17449 12.5213 8.16116C14.1565 8.14782 15.5716 6.72475 15.5542 5.08027ZM5.2766 7.25156C5.84942 7.24383 6.39579 7.0092 6.79584 6.59915C7.19589 6.1891 7.41696 5.63711 7.41055 5.06427C7.39054 3.89327 6.37692 2.89832 5.21659 2.91966C4.05625 2.941 3.0493 3.97462 3.0693 5.12429C3.0867 5.69684 3.32734 6.23989 3.73979 6.63739C4.15224 7.03488 4.7038 7.25531 5.2766 7.25156ZM19.7541 7.25156C20.3266 7.24785 20.875 7.02078 21.2826 6.61871C21.6901 6.21664 21.9246 5.67134 21.936 5.09895C21.9216 4.52662 21.6886 3.98155 21.2847 3.57574C20.8809 3.16993 20.337 2.9342 19.7648 2.91699C19.1913 2.92763 18.6444 3.16053 18.2393 3.56659C17.8343 3.97265 17.6027 4.52014 17.5935 5.09361C17.5949 5.66609 17.823 6.21469 18.2279 6.61937C18.6329 7.02405 19.1816 7.25184 19.7541 7.2529V7.25156ZM9.96995 8.20384C9.12479 7.46792 8.58493 6.44291 8.45618 5.32968C8.30947 5.76847 8.25346 6.03388 8.13609 6.26328C7.9427 6.64872 7.46923 7.09018 7.55726 7.37026C7.65462 7.68769 8.30014 7.79572 8.60022 8.09981C9.01901 8.52793 9.40312 8.58928 9.96995 8.20384ZM14.974 8.27719C15.4529 8.33721 15.7423 8.71198 16.101 8.35188C16.4425 8.00253 16.8507 7.7254 17.3014 7.53698C17.5001 7.45562 17.6201 7.36093 17.4227 7.15954C16.968 6.69674 16.7852 6.09257 16.5345 5.33101C16.3878 6.58337 15.8476 7.45562 14.9727 8.27719H14.974Z" fill="white" stroke="white" stroke-width="0.3"/>
</svg>
