<svg width="19" height="28" viewBox="0 0 19 28" fill="none" xmlns="http://www.w3.org/2000/svg">
<path d="M18.9963 9.99306C18.8573 18.5258 14.1779 25.1322 6.44809 27.6904C6.26277 27.7474 6.09598 27.8045 5.91807 27.8543C4.83579 28.1637 3.96848 27.9077 3.45884 27.1323C2.94921 26.3569 3.0326 25.4471 3.76648 24.6036C5.14962 23.0318 6.32197 21.2885 7.25425 19.4172C7.77315 18.3675 7.77871 18.3693 6.69828 18.0378C2.79539 16.837 0.180489 13.1056 0.295389 8.90091C0.404729 4.88959 3.33653 1.28899 7.30243 0.288921C9.26188 -0.216649 11.3344 -0.0656319 13.1987 0.718556C15.063 1.50274 16.6149 2.87629 17.6138 4.62622C18.57 6.25169 19.049 8.11089 18.9963 9.99306Z" fill="#FA8B02"/>
</svg>
