<svg width="19" height="14" viewBox="0 0 19 14" fill="none" xmlns="http://www.w3.org/2000/svg">
<path d="M1.89437 4.94011C1.56587 4.90257 1.36956 4.89866 1.18263 4.85486C0.977388 4.80731 0.796101 4.68751 0.671887 4.51734C0.547673 4.34718 0.488824 4.13801 0.506089 3.92804C0.518584 3.71757 0.607926 3.51902 0.757154 3.37008C0.906381 3.22114 1.1051 3.13218 1.31559 3.1201C1.73794 3.10524 2.17593 3.0192 2.567 3.29373C2.75393 3.42513 2.74298 3.21552 2.77348 3.1287C2.92521 2.69618 3.05583 2.25975 3.20756 1.82958C3.48053 1.05293 3.97796 0.695496 4.79216 0.695496C7.93319 0.695496 11.0745 0.695496 14.216 0.695496C15.0122 0.695496 15.5105 1.0498 15.7803 1.80377C15.9367 2.24568 16.0838 2.69149 16.2222 3.13965C16.2785 3.3211 16.3301 3.35786 16.5131 3.25149C16.9472 3.00043 17.4275 3.06926 17.8834 3.1592C18.2604 3.23741 18.5037 3.62848 18.4935 4.01954C18.4902 4.21011 18.4245 4.39436 18.3066 4.54408C18.1887 4.6938 18.0249 4.80077 17.8404 4.8486C17.6449 4.89709 17.4384 4.90335 17.1146 4.94402C17.4994 5.30849 17.8185 5.61196 18.1361 5.91073C18.2567 6.02019 18.3517 6.15485 18.4144 6.30516C18.4771 6.45547 18.506 6.61774 18.499 6.78046C18.4896 8.00632 18.4896 9.23165 18.499 10.4565C18.499 10.8217 18.3981 11.133 18.0876 11.3332C17.9139 11.4451 17.8834 11.5835 17.8959 11.7618C17.9882 13.0367 17.6245 13.366 16.3372 13.2956C15.8953 13.2721 15.451 13.2956 15.0075 13.2909C14.3615 13.2846 14.015 12.9452 13.9963 12.3085C13.9728 11.4944 13.9728 11.4944 13.168 11.4944H5.50311C5.0049 11.4944 5.00568 11.4944 5.00333 12.0106C5.00333 12.1537 5.00881 12.2984 4.99707 12.4407C4.95484 12.9241 4.61931 13.2721 4.13673 13.2846C3.4203 13.3034 2.70231 13.3026 1.98588 13.2846C1.48766 13.2729 1.14431 12.91 1.11224 12.4094C1.10325 12.2792 1.10325 12.1486 1.11224 12.0184C1.13414 11.6985 1.11224 11.424 0.790784 11.2159C0.56162 11.0736 0.500614 10.7959 0.500614 10.5198C0.505307 9.25486 0.505307 7.99041 0.500614 6.72649C0.495593 6.58303 0.521412 6.44016 0.576327 6.30753C0.631243 6.17489 0.713975 6.05559 0.81894 5.95766C1.14743 5.64403 1.47906 5.33274 1.89437 4.94011ZM9.45755 10.8843C12.0892 10.8843 14.7208 10.8843 17.3524 10.8843C17.8389 10.8843 17.8881 10.8335 17.8897 10.3446C17.8897 9.70562 17.8983 9.0674 17.8897 8.42919C17.8811 7.79097 18.0805 7.08236 17.8177 6.53722C17.5549 5.99207 16.9488 5.58849 16.4936 5.12313C16.485 5.11374 16.4748 5.10514 16.467 5.09497C16.3442 4.93855 16.1846 4.89475 15.9875 4.89553C11.6598 4.89918 7.33434 4.89918 3.01125 4.89553C2.92131 4.89059 2.83139 4.90564 2.74795 4.93958C2.66451 4.97353 2.58963 5.02552 2.52867 5.09184C2.13761 5.49464 1.74655 5.89353 1.34062 6.2799C1.25961 6.35372 1.19609 6.44468 1.15468 6.54616C1.11328 6.64763 1.09504 6.75707 1.10129 6.86649C1.10989 8.01309 1.10129 9.1597 1.10598 10.3079C1.10598 10.8507 1.14352 10.889 1.68006 10.8898C4.27204 10.8898 6.86454 10.8892 9.45755 10.8882V10.8843ZM3.02846 4.25105C3.055 4.26459 3.08275 4.27558 3.11136 4.2839C7.31713 4.28755 11.5224 4.29277 15.7271 4.29955C16.0094 4.29955 15.9375 4.16267 15.8835 4.01016C15.675 3.38028 15.4651 2.75093 15.2539 2.1221C15.042 1.47762 14.7956 1.2993 14.1097 1.29852C12.3368 1.29852 10.5661 1.29852 8.79744 1.29852C7.46782 1.29852 6.1382 1.30399 4.81327 1.29852C4.41752 1.29852 4.04366 1.39159 3.89662 1.76779C3.5736 2.57964 3.31628 3.422 3.02846 4.25105ZM3.03784 11.4944C2.83058 11.4944 2.62253 11.4897 2.41214 11.4944C1.58934 11.5163 1.70822 11.3199 1.69023 12.2475C1.68554 12.5604 1.82476 12.6965 2.13761 12.6902C2.60689 12.6816 3.07225 12.6902 3.53997 12.6902C4.42534 12.6902 4.45349 12.6535 4.40031 11.7673C4.39171 11.5671 4.33305 11.4889 4.12891 11.4889C3.76522 11.5022 3.40153 11.4951 3.03784 11.4944ZM15.95 11.4944C15.7427 11.4944 15.5347 11.4897 15.3243 11.4944C14.4999 11.5155 14.6071 11.3207 14.5907 12.2405C14.5852 12.5807 14.7471 12.7004 15.0685 12.6918C15.5378 12.6785 16.0032 12.6918 16.4701 12.6918C17.3133 12.6918 17.2984 12.6918 17.3062 11.8541C17.3062 11.5468 17.1983 11.4748 16.9206 11.492C16.6007 11.51 16.2746 11.4944 15.95 11.4944ZM1.73012 4.29329C1.83805 4.29329 1.91627 4.29955 1.99292 4.29329C2.11962 4.28078 2.29638 4.35508 2.29873 4.11731C2.29873 3.91865 2.25571 3.75362 2.03124 3.71139C1.94266 3.69404 1.85204 3.68956 1.76219 3.69809C1.51582 3.72625 1.13648 3.58468 1.13648 3.99608C1.13648 4.40748 1.51738 4.25809 1.73012 4.29329ZM17.1764 4.29329C17.325 4.29329 17.4415 4.29876 17.5573 4.29329C17.7489 4.28156 17.8787 4.19161 17.8756 3.98044C17.8756 3.78647 17.7364 3.71217 17.5675 3.702C17.3875 3.69105 17.207 3.69105 17.027 3.702C16.8127 3.71295 16.7001 3.83653 16.6985 4.05239C16.6946 4.50055 17.0489 4.19396 17.1764 4.29329Z" fill="#333333" stroke="#333333" stroke-width="0.2"/>
<path d="M9.49518 6.69678C10.5245 6.69678 11.553 6.69678 12.5815 6.69678C12.9186 6.69678 13.2119 6.76091 13.3409 7.11443C13.47 7.46796 13.2713 7.70963 13.0281 7.96304C12.3922 8.63176 11.6546 8.88439 10.7231 8.81635C9.64769 8.73813 8.5621 8.78819 7.48198 8.80305C7.31352 8.81257 7.14494 8.78673 6.98707 8.72719C6.8292 8.66765 6.68554 8.57574 6.56532 8.45735C6.35962 8.25869 6.12811 8.0874 5.90599 7.90986C5.65023 7.70025 5.52744 7.44058 5.64788 7.11756C5.76364 6.80471 6.01392 6.70225 6.32912 6.70225C7.38708 6.70069 8.44243 6.69886 9.49518 6.69678ZM6.26264 7.32874C6.7413 7.96852 7.16365 8.18908 7.85818 8.18908C8.92422 8.18908 9.99496 8.12807 11.0547 8.20941C11.8369 8.26964 12.26 7.82461 12.7848 7.32483L6.26264 7.32874Z" fill="#333333" stroke="#333333" stroke-width="0.2"/>
<path d="M3.45002 8.79369C3.08633 8.79369 2.72186 8.80385 2.35504 8.79369C1.92487 8.77961 1.69884 8.5653 1.69258 8.14061C1.68007 6.89389 1.5823 6.71791 3.05192 6.66629C4.02411 6.63344 4.53797 7.22161 5.14099 7.74641C5.33026 7.91066 5.33417 8.17033 5.23875 8.40184C5.19511 8.51955 5.11563 8.6206 5.01151 8.69076C4.9074 8.76092 4.7839 8.79664 4.65841 8.7929C4.25562 8.80072 3.85282 8.7929 3.45002 8.7929V8.79369ZM4.67093 8.19066C4.14221 7.49535 3.53684 7.15434 2.71951 7.29825C2.58655 7.32172 2.38633 7.23021 2.33549 7.39211C2.26876 7.63043 2.27011 7.88268 2.3394 8.12027C2.34879 8.15625 2.4489 8.18675 2.50678 8.18754C3.20443 8.19223 3.90288 8.19066 4.67093 8.19066Z" fill="#333333" stroke="#333333" stroke-width="0.2"/>
<path d="M15.5002 8.79443H14.4053C14.0869 8.79443 13.8406 8.6685 13.7381 8.35956C13.6356 8.05062 13.7381 7.80034 13.9884 7.59855C14.2699 7.36391 14.5507 7.13631 14.8268 6.90011C14.9851 6.76225 15.1896 6.68932 15.3993 6.69598C15.8029 6.69598 16.2057 6.6905 16.6085 6.69598C17.0778 6.70614 17.2866 6.92358 17.2991 7.39989C17.3054 7.62045 17.3046 7.84179 17.2991 8.06236C17.2882 8.56292 17.0801 8.778 16.5882 8.78895C16.2284 8.80147 15.8639 8.79521 15.5002 8.79443ZM14.3388 8.19297H16.1815C16.7024 8.19297 16.7055 8.19297 16.6906 7.65487C16.6867 7.51408 16.754 7.33419 16.5068 7.30056C15.6418 7.18715 14.898 7.36548 14.3388 8.19297Z" fill="#333333" stroke="#333333" stroke-width="0.2"/>
<path d="M9.48336 9.69C10.3307 9.69 11.1777 9.69 12.0245 9.69C12.2443 9.69 12.475 9.69626 12.4797 9.98565C12.4844 10.275 12.2513 10.2915 12.0331 10.2915C10.339 10.2915 8.6444 10.2915 6.94926 10.2915C6.72714 10.2915 6.50189 10.2649 6.51283 9.97861C6.52222 9.71816 6.72948 9.69313 6.94066 9.69391C7.79005 9.69 8.63475 9.69 9.48336 9.69Z" fill="#333333" stroke="#333333" stroke-width="0.2"/>
<path d="M3.35617 9.69C3.67997 9.69 4.00377 9.69 4.32836 9.69C4.5411 9.69 4.69361 9.77838 4.69048 10.0029C4.69048 10.207 4.53406 10.2891 4.34322 10.2899C3.68206 10.293 3.0209 10.293 2.35974 10.2899C2.16968 10.2899 2.01717 10.2046 2.01795 9.99816C2.01795 9.77369 2.17437 9.69078 2.38398 9.69235C2.70779 9.69 3.03159 9.69 3.35617 9.69Z" fill="#333333" stroke="#333333" stroke-width="0.2"/>
<path d="M15.6622 9.69C15.986 9.69 16.3098 9.69 16.6344 9.69C16.8323 9.69 16.9699 9.77995 16.9785 9.97861C16.9871 10.1773 16.8456 10.2836 16.6524 10.2852C15.9782 10.2899 15.304 10.2899 14.6298 10.2852C14.4366 10.2852 14.2943 10.1804 14.3037 9.97783C14.313 9.77525 14.4523 9.69 14.6509 9.69078C14.988 9.69 15.3251 9.69 15.6622 9.69Z" fill="#333333" stroke="#333333" stroke-width="0.2"/>
</svg>
