<svg width="19" height="18" viewBox="0 0 19 18" fill="none" xmlns="http://www.w3.org/2000/svg">
<path d="M18.4982 9.71871C18.4982 12.0354 18.4982 14.3521 18.4982 16.6688C18.4982 17.6114 18.0021 17.9814 17.1061 17.7002C15.6882 17.2567 14.272 16.8063 12.8577 16.3491C12.6242 16.2689 12.3711 16.2667 12.1363 16.3429C10.3787 16.8801 8.61486 17.4041 6.85964 17.9414C6.62625 18.0195 6.37388 18.0195 6.14049 17.9414C4.52848 17.419 2.91255 16.91 1.29662 16.3978C0.696416 16.2038 0.5 15.9446 0.5 15.3083C0.5 10.6356 0.5 5.96243 0.5 1.28869C0.5 0.402638 1.00708 0.0216685 1.85378 0.285598C3.28529 0.73124 4.71394 1.18552 6.13971 1.64845C6.3734 1.72873 6.62662 1.73148 6.86199 1.6563C8.61955 1.11902 10.3834 0.595086 12.1386 0.0585871C12.372 -0.0195697 12.6244 -0.0195697 12.8577 0.0585871C14.4698 0.580161 16.0865 1.08838 17.7016 1.6021C18.3065 1.79455 18.499 2.05534 18.4998 2.68924C18.4988 5.03266 18.4982 7.37581 18.4982 9.71871ZM12.1957 9.94336V4.99469C12.1957 4.19819 12.1957 4.19819 11.4132 4.32937C11.4007 4.32937 11.3882 4.33565 11.3756 4.33801C11.1949 4.37179 11.0626 4.30502 11.0063 4.13064C10.993 4.09356 10.9879 4.05406 10.9912 4.01481C10.9946 3.97557 11.0063 3.93751 11.0256 3.90322C11.0449 3.86893 11.0713 3.83922 11.1031 3.81611C11.1349 3.793 11.1713 3.77704 11.2097 3.7693C11.4343 3.70152 11.6645 3.6542 11.8976 3.62791C12.1284 3.60513 12.2004 3.50773 12.1973 3.27836C12.1848 2.53214 12.1801 1.78591 12.1973 1.04047C12.2051 0.73412 12.1143 0.697201 11.8405 0.78125C10.2965 1.25648 8.74945 1.72385 7.19847 2.17552C6.89407 2.26349 6.79782 2.39703 6.7986 2.7183C6.8119 6.35675 6.80721 9.99442 6.80721 13.6368C6.80721 13.7028 6.80721 13.768 6.80721 13.8332C6.80095 13.9981 6.83303 14.1152 7.04197 14.0916C7.21647 14.072 7.35498 14.1427 7.38002 14.3359C7.4035 14.5456 7.27673 14.6587 7.08423 14.6752C6.84242 14.6964 6.79782 14.8284 6.80173 15.0444C6.81269 15.6854 6.81895 16.3271 6.80173 16.9681C6.79234 17.2768 6.88859 17.3098 7.16013 17.2265C8.71633 16.7474 10.2762 16.2784 11.8397 15.8197C12.1151 15.7412 12.2051 15.6155 12.2035 15.3296C12.191 13.5292 12.1973 11.7367 12.1973 9.94336H12.1957ZM12.7951 0.683848C12.7951 1.61624 12.7998 2.4905 12.7951 3.36634C12.7951 3.56429 12.8984 3.60906 13.0549 3.62948C13.3144 3.66112 13.5671 3.73487 13.803 3.84785C13.9596 3.9264 14.0378 4.06151 13.9674 4.23668C13.8969 4.41185 13.7569 4.45741 13.5816 4.40321C13.4446 4.36079 13.3069 4.32466 13.1731 4.27203C12.8953 4.16206 12.7858 4.2139 12.7858 4.54774C12.7967 8.16105 12.7967 11.772 12.7858 15.3806C12.7858 15.6163 12.8546 15.7223 13.0855 15.793C14.494 16.2266 15.8924 16.6798 17.2963 17.1213C17.772 17.2713 17.8918 17.1833 17.8918 16.6869C17.8918 12.0299 17.8941 7.37267 17.8988 2.71516C17.8988 2.39389 17.7752 2.24936 17.4802 2.16059C16.5583 1.88174 15.6428 1.57854 14.7241 1.2879C14.0973 1.08838 13.4666 0.892792 12.7951 0.683848ZM1.10333 8.28281V9.03218C1.10333 11.1001 1.10333 13.1686 1.10333 15.2376C1.10333 15.4788 1.09316 15.7027 1.39835 15.7977C2.91594 16.269 4.43144 16.7503 5.94486 17.2415C6.16005 17.3106 6.21327 17.2478 6.21014 17.0325C6.19918 16.3782 6.20544 15.7231 6.21014 15.0688C6.21014 14.8983 6.21014 14.7546 6.02702 14.6399C5.84391 14.5252 5.84469 14.3013 6.03407 14.1866C6.22344 14.072 6.20935 13.9211 6.20935 13.753C6.20935 10.0486 6.21118 6.34418 6.21483 2.63975C6.21483 2.3876 6.13658 2.27371 5.89712 2.19908C4.51048 1.76941 3.134 1.32482 1.75205 0.890435C1.20428 0.717624 1.10255 0.794604 1.10177 1.37116C1.10229 3.67531 1.10281 5.97919 1.10333 8.28281Z" fill="#333333"/>
</svg>
