<svg width="24" height="23" viewBox="0 0 24 23" fill="none" xmlns="http://www.w3.org/2000/svg">
<path d="M11.9804 12.1127C11.8289 13.127 11.7025 13.9846 11.5709 14.8402C11.5416 15.0293 11.6367 15.0752 11.7986 15.1045C12.0817 15.1546 12.1924 15.3499 12.0713 15.6006C11.9825 15.7824 12.0243 15.9245 12.0608 16.0968C12.1809 16.6515 11.878 17.2522 11.3296 17.3618C10.8982 17.4486 10.8606 17.6606 10.8188 18.0231C10.6151 19.7843 8.99908 20.9751 7.32145 20.6346C5.54563 20.2721 4.50102 18.5663 5.00557 16.8416C5.12939 16.4039 5.35981 16.0037 5.6762 15.6769C5.85587 15.491 6.05853 15.3155 6.29774 15.5484C6.50666 15.7573 6.36877 15.9569 6.20582 16.1376C5.96643 16.3928 5.78941 16.7 5.68865 17.0351C5.58788 17.3702 5.5661 17.7241 5.62502 18.069C5.80364 19.2871 6.94853 20.1217 8.20832 19.9546C9.3741 19.7979 10.2474 18.6603 10.1325 17.4841C10.1001 17.1561 9.97474 17.1602 9.73344 17.2699C9.22576 17.5008 8.71391 17.7201 8.20205 17.9385C7.72989 18.1411 7.56067 18.0429 7.50739 17.5478C7.37159 16.2504 7.20863 14.954 7.12507 13.6525C7.08955 13.0988 6.70723 12.8868 6.38026 12.5943C6.22462 12.4533 6.09404 12.6361 5.96242 12.6987C5.73157 12.8032 5.51638 12.8377 5.38476 12.5723C5.25314 12.307 5.42445 12.1649 5.62502 12.0762C6.02928 11.8975 6.14732 11.744 5.83394 11.3042C5.29283 10.5458 5.56756 9.53673 6.37713 9.04263C7.11984 8.59032 7.87718 8.15889 8.63452 7.73061C8.74288 7.68248 8.83577 7.60527 8.9029 7.50754C8.97002 7.4098 9.00874 7.29538 9.01475 7.17697C9.03877 6.89616 9.17117 6.63574 9.38391 6.45088C9.59665 6.26603 9.87301 6.17127 10.1544 6.18668C10.4181 6.19863 10.6688 6.30503 10.8606 6.48645C11.0523 6.66788 11.1725 6.91222 11.199 7.17488C11.2181 7.31373 11.2091 7.455 11.1725 7.59028C11.1358 7.72557 11.0723 7.85209 10.9858 7.96233C10.8992 8.07257 10.7914 8.16426 10.6686 8.23195C10.5459 8.29964 10.4108 8.34193 10.2714 8.35632C9.97266 8.4002 9.88073 8.49839 9.92983 8.78252C9.9831 9.08755 10.0155 9.39675 10.0635 9.75087C10.5148 9.52523 10.8251 9.17111 11.1938 8.89847C11.4027 8.74492 11.6116 8.58509 11.8206 8.8546C12.0096 9.09486 11.831 9.26513 11.6555 9.42809C10.9243 10.105 10.9243 10.1071 11.644 10.8237L11.6806 10.8613C11.9543 11.1287 12.1851 11.5162 12.5163 11.6332C12.9069 11.7732 13.0845 11.2426 13.3948 11.0535C14.4958 10.3829 15.9269 10.4393 16.9161 11.2426C17.4002 11.6351 17.7492 12.1692 17.9144 12.7701C18.0796 13.371 18.0526 14.0085 17.8372 14.5933C17.6218 15.1781 17.2288 15.6808 16.7134 16.031C16.1979 16.3812 15.5857 16.5613 14.9627 16.546C14.3397 16.535 13.7362 16.3269 13.2389 15.9516C12.7415 15.5762 12.3759 15.0529 12.1945 14.4568C12.1329 14.2552 12.0263 14.0233 12.2426 13.8812C12.6322 13.6263 12.7398 13.9178 12.8526 14.228C13.2809 15.4084 14.2952 16.0039 15.4725 15.7876C16.4461 15.608 17.1543 14.8412 17.2911 13.8206C17.3453 13.3501 17.2514 12.8744 17.0226 12.4597C16.7937 12.0451 16.4412 11.7121 16.0142 11.5071C15.5872 11.3022 15.1069 11.2355 14.6402 11.3163C14.1735 11.3972 13.7437 11.6215 13.4104 11.9581C13.1274 12.237 13.1921 12.4 13.4804 12.6037C13.9056 12.9035 14.3955 13.0215 14.8812 13.1511C15.1424 13.2221 15.4391 13.2921 15.343 13.6462C15.2469 14.0003 14.9502 13.8812 14.6922 13.8384C13.6058 13.6556 12.7753 13.0529 11.9804 12.1127ZM6.40429 9.84279C7.35175 10.1645 7.44889 10.1562 8.10699 9.77176C8.30129 9.65894 8.48305 9.51166 8.68988 9.4354C9.27695 9.22021 9.35843 8.83789 9.09519 8.27485L6.40429 9.84279ZM10.8261 14.2489L10.942 14.2207C11.0695 13.4143 11.1973 12.6079 11.3254 11.8014C11.3432 11.6844 11.3975 11.5518 11.2669 11.4682C11.1363 11.3846 11.0423 11.5048 10.9431 11.5591C10.6987 11.6928 10.4626 11.8401 10.2119 11.9769C10.0562 12.0605 9.95699 12.1587 10.0353 12.3488L10.8261 14.2489ZM10.3602 15.2747C10.3821 15.1703 10.4051 15.1358 10.3947 15.1107C10.1701 14.5446 9.94236 13.9815 9.71568 13.4164C9.46184 12.7896 8.81837 12.634 8.29398 13.0738C8.16549 13.1782 8.15922 13.2503 8.27517 13.3568C8.96252 13.9867 9.64778 14.6187 10.3602 15.2747ZM8.02865 15.797C8.0485 16.0206 8.05999 16.1752 8.07774 16.3298C8.17594 17.1738 8.1822 17.1822 8.94894 16.826C9.20487 16.7069 9.66345 16.6818 9.66136 16.4186C9.66136 16.0551 9.24352 15.8639 8.93014 15.6874C8.79136 15.6186 8.64704 15.5617 8.49872 15.5171C8.16967 15.4043 7.93881 15.4158 8.02865 15.7991V15.797ZM9.11504 11.9717C8.41933 11.0817 7.45307 10.7412 6.34475 10.6451C6.50875 11.2635 7.50321 11.7576 9.11504 11.9738V11.9717ZM8.37128 10.4434C8.75151 10.6785 9.12026 10.8132 9.35007 11.0702C9.65092 11.4087 9.8964 11.4191 10.2077 11.1548C10.3404 11.042 10.6422 11.0504 10.5775 10.7997C10.5221 10.5845 10.3101 10.526 10.0677 10.5657C9.80656 10.6085 9.54541 10.4978 9.47751 10.245C9.36365 9.79161 9.15578 9.97233 8.9291 10.1081L8.37128 10.4434ZM10.0876 6.89179C9.85148 6.93462 9.7115 7.06937 9.72404 7.30963C9.72372 7.35783 9.73346 7.40557 9.75262 7.4498C9.77179 7.49403 9.79996 7.53377 9.83534 7.5665C9.87073 7.59924 9.91255 7.62423 9.95813 7.6399C10.0037 7.65556 10.0521 7.66155 10.1001 7.65748C10.3414 7.65748 10.5002 7.51542 10.4939 7.27098C10.4876 7.02654 10.3299 6.90955 10.0876 6.89283V6.89179ZM11.3714 16.3569C11.3714 16.1041 11.2387 15.961 10.9974 15.9516C10.95 15.9458 10.9019 15.9499 10.8561 15.9638C10.8104 15.9776 10.7681 16.0009 10.7319 16.0321C10.6957 16.0633 10.6664 16.1017 10.6459 16.1449C10.6255 16.188 10.6142 16.235 10.613 16.2828C10.589 16.523 10.7091 16.6849 10.9535 16.7058C11.198 16.7267 11.3327 16.5909 11.3714 16.358V16.3569ZM7.92941 14.0066C7.88763 14.7378 7.88763 14.7441 8.74629 14.7514L7.92941 14.0066Z" fill="#FA8B02" stroke="#FA8B02" stroke-width="0.2"/>
<path d="M23.5295 18.7929C22.4296 18.467 21.3296 18.14 20.2244 17.8298C19.9956 17.765 19.8703 17.6961 19.8713 17.4224C19.8811 14.7238 19.8811 12.0256 19.8713 9.32777C19.8713 8.94649 20.0092 8.9726 20.2662 9.12511C20.7603 9.41865 21.2607 9.69965 21.76 9.98273C21.9564 10.0945 22.158 10.2387 22.3867 10.0517C22.5894 9.88141 22.4975 9.66935 22.4379 9.47192C21.5995 6.72601 20.7603 3.98044 19.9204 1.23522C19.8588 1.03257 19.7951 0.817383 19.5277 0.817383C19.2602 0.817383 19.1882 1.0263 19.1265 1.22687C18.6544 2.78333 17.6777 6.05189 17.1606 7.76713C17.1301 7.82592 17.1053 7.88748 17.0864 7.95098C16.9297 8.46701 16.773 8.98096 16.6132 9.49804C16.5537 9.69756 16.4753 9.91588 16.6916 10.0694C16.9078 10.223 17.0896 10.0966 17.2713 9.99422C17.756 9.71949 18.248 9.45625 18.7191 9.15854C19.0733 8.93709 19.1777 8.99349 19.1756 9.41969C19.1631 12.0298 19.1631 14.6413 19.1756 17.2542C19.1756 17.6251 19.0471 17.7358 18.6972 17.7368C17.9743 17.7368 17.2891 17.9395 16.6247 18.2132C14.6462 19.0269 12.6343 19.7738 10.6997 20.6816C8.76512 21.5893 6.86289 21.6739 4.90531 20.8142C4.6055 20.6837 4.43941 20.5437 4.36316 20.2104C3.9286 18.3114 3.46793 16.4175 3.01457 14.5226C2.95921 14.2896 2.94667 14.0003 2.62494 13.9825C2.25724 13.9627 2.24575 14.2802 2.18725 14.5268C1.8286 16.0164 1.47309 17.5053 1.12071 18.9935C1.06325 19.2337 1.03923 19.4938 0.66735 19.3257C0.41769 19.2139 0.117888 19.1481 0.0186511 19.4991C-0.0805862 19.8501 0.236973 19.9232 0.480366 20.0088C2.25619 20.6356 4.02157 21.2624 5.80262 21.8641C7.16872 22.3341 8.66045 22.282 9.99044 21.7178C12.2607 20.786 14.5271 19.8459 16.7898 18.8974C18.0647 18.3454 19.4957 18.2713 20.8209 18.6885C21.6566 18.9402 22.4839 19.1982 23.3154 19.4552C23.5713 19.5346 23.8659 19.639 23.9766 19.2954C24.0874 18.9517 23.7823 18.8681 23.5295 18.7929ZM1.90625 19.7498C1.74851 19.6965 1.67957 19.6276 1.72344 19.4479C1.99922 18.3291 2.26664 17.2072 2.65627 16.0822C2.98741 17.4705 3.3196 18.8598 3.68208 20.3776C3.0198 20.1425 2.46616 19.9399 1.90938 19.7498H1.90625ZM19.0524 8.15468C18.576 8.43672 18.0903 8.70205 17.5158 9.02588C17.592 8.75846 17.6484 8.54327 17.7059 8.34166C17.7236 8.2957 17.7383 8.24765 17.7529 8.19959C18.0663 7.18424 18.9239 4.28547 19.2404 3.27325C19.3146 3.03403 19.3449 2.77184 19.5653 2.50442C20.2276 4.67928 20.87 6.79251 21.55 9.03319C20.9452 8.69369 20.4615 8.42836 19.9831 8.1505C19.8443 8.06214 19.6828 8.01582 19.5182 8.01712C19.3536 8.01842 19.193 8.06728 19.0555 8.15781L19.0524 8.15468Z" fill="#FA8B02" stroke="#FA8B02" stroke-width="0.2"/>
</svg>
