<svg width="10" height="25" viewBox="0 0 10 25" fill="none" xmlns="http://www.w3.org/2000/svg">
<path d="M5.00955 0.5C5.35703 0.5 5.70451 0.5 6.05303 0.5C6.5299 0.509376 6.8106 0.769823 6.83981 1.22925C6.86903 1.68868 6.90138 2.1356 6.5779 2.56586C6.29929 2.9357 6.47355 3.35241 6.77929 3.69203C7.41999 4.39941 8.03981 5.12761 8.69303 5.82353C8.95306 6.09268 9.15646 6.4111 9.29124 6.76001C9.42601 7.10892 9.48942 7.48124 9.47773 7.85501C9.4652 9.98963 9.47147 12.1263 9.47773 14.2578C9.47889 14.7445 9.38165 15.2264 9.19181 15.6747C8.51355 17.2915 8.50207 18.9167 9.19181 20.5304C9.56851 21.4159 9.53094 22.3327 9.42764 23.2391C9.39224 23.5736 9.23277 23.8828 8.98058 24.1058C8.72839 24.3289 8.40174 24.4497 8.06486 24.4444C7.15599 24.4569 6.22416 24.6121 5.37164 24.085C5.07738 23.9037 4.72886 23.9944 4.42312 24.16C3.52364 24.6486 2.55633 24.5017 1.62033 24.3819C0.956682 24.3027 0.546596 23.7318 0.520509 23.0474C0.483987 22.0764 0.520509 21.1336 0.906596 20.1918C1.46903 18.8115 1.4346 17.3655 0.895117 15.9726C0.628087 15.2954 0.495197 14.573 0.503813 13.8453C0.526074 11.8506 0.526074 9.85524 0.503813 7.85918C0.491088 7.48643 0.553635 7.11493 0.687729 6.76681C0.821822 6.4187 1.02472 6.10109 1.28433 5.8329C1.93547 5.13387 2.56155 4.41295 3.19494 3.69828C3.59981 3.2399 3.60086 2.92215 3.29929 2.40334C3.0186 1.92516 3.05929 1.39906 3.24086 0.900046C3.3452 0.618764 3.61442 0.504167 3.91807 0.503125L5.00955 0.5ZM1.3386 21.1013C1.53373 21.1149 1.66833 21.1295 1.80294 21.1336C2.06173 21.142 2.32468 21.1711 2.31216 21.5076C2.30277 21.8035 2.05651 21.8837 1.82277 21.841C1.2186 21.7306 1.16538 22.0681 1.21129 22.5234C1.23007 22.7119 1.21129 22.9057 1.23529 23.0943C1.27077 23.3974 1.45025 23.6704 1.73199 23.6964C2.51877 23.7673 3.32955 23.9339 4.0819 23.5433C4.59216 23.2787 5.13894 23.1464 5.62729 23.4328C6.39947 23.885 7.21129 23.7454 8.01581 23.7454C8.48329 23.7454 8.73581 23.4422 8.76816 22.9776C8.78277 22.7536 8.75042 22.5244 8.77755 22.3015C8.82451 21.9285 8.6732 21.8379 8.3132 21.842C6.85233 21.8618 5.39147 21.8504 3.9306 21.8504C3.7914 21.8546 3.65207 21.8515 3.5132 21.841C3.29825 21.8181 3.1459 21.6993 3.15112 21.4753C3.15112 21.2774 3.30138 21.169 3.49442 21.1472C3.63326 21.136 3.77258 21.1322 3.91181 21.1357C5.3372 21.1357 6.7626 21.1274 8.19007 21.1357C8.53547 21.1357 8.65442 21.0919 8.50312 20.7096C7.78625 18.8969 7.81964 17.0863 8.58347 15.2923C8.6452 15.1491 8.69714 15.0019 8.73894 14.8516C8.83286 14.4995 8.76294 14.3308 8.32155 14.3308C6.20016 14.3537 4.07981 14.3412 1.95633 14.3412C1.12155 14.3412 1.0579 14.437 1.3626 15.2184C1.38138 15.2663 1.40538 15.3132 1.42729 15.36C1.86451 16.3289 2.01268 17.3499 1.98138 18.4052C1.94565 19.3372 1.72728 20.2532 1.3386 21.1013ZM8.64294 11.1762L8.7619 11.1137C8.7619 10.5157 8.7619 9.91671 8.7619 9.31872C8.7619 9.08224 8.59494 9.09786 8.43947 9.08432C8.20677 9.06453 8.02207 8.97077 8.03877 8.70719C8.05233 8.47487 8.23077 8.39466 8.44051 8.38111C8.59599 8.36965 8.76503 8.38111 8.7619 8.14775C8.75564 7.71645 8.80781 7.28203 8.58868 6.87573C8.46555 6.64654 8.34868 6.54236 8.06694 6.65904C7.73849 6.80389 7.37816 6.86167 7.02079 6.82682C6.66342 6.79196 6.32111 6.66564 6.02694 6.46006C5.32051 5.98709 4.64955 5.98501 3.94729 6.46006C3.38381 6.8424 2.75251 6.91011 2.09929 6.73717C1.52016 6.58507 1.35007 6.67883 1.24781 7.27161C1.21233 7.47997 1.23425 7.68833 1.20607 7.89668C1.15077 8.29777 1.33025 8.39362 1.70903 8.38945C3.27425 8.37174 4.83947 8.38111 6.40468 8.38216C6.56068 8.3785 6.71676 8.38371 6.87216 8.39778C7.0652 8.41966 7.19981 8.5228 7.20294 8.73115C7.20563 8.77499 7.19937 8.81891 7.18453 8.86025C7.16969 8.9016 7.14659 8.9395 7.11663 8.97165C7.08667 9.00381 7.05047 9.02954 7.01024 9.0473C6.97001 9.06505 6.92658 9.07446 6.8826 9.07494C6.72725 9.08992 6.57114 9.09548 6.41512 9.09161C4.86868 9.09161 3.32225 9.11141 1.77686 9.08119C1.29999 9.06765 1.18416 9.21871 1.19877 9.66772C1.23112 10.6553 1.20607 11.6471 1.21233 12.6337C1.21233 12.7775 1.15286 12.9462 1.32399 13.0994C1.88642 12.6118 2.44677 12.1274 3.00294 11.6409C3.30555 11.3742 3.69894 11.1304 4.04016 11.3346C4.66625 11.7065 4.93755 11.3044 5.27981 10.9512C5.52086 10.7022 5.76086 10.4511 6.01651 10.2157C6.57999 9.69481 7.16433 9.69481 7.72364 10.2157C8.04607 10.522 8.34033 10.8554 8.64294 11.1762ZM7.86138 5.97459C7.2979 5.3391 6.78138 4.75882 6.26694 4.17542C6.07181 3.95456 5.82242 3.72329 5.83181 3.42742C5.85477 2.65337 5.37581 2.65337 4.83112 2.70546C4.74436 2.7138 4.657 2.7138 4.57025 2.70546C4.33755 2.68567 4.21025 2.77005 4.21442 3.018C4.22277 3.52118 3.9619 3.90143 3.64051 4.25668C3.13547 4.81612 2.63981 5.38389 2.11807 5.9725C2.66799 6.21941 3.13233 6.15586 3.56016 5.86833C4.51703 5.21825 5.46033 5.22033 6.4172 5.86833C6.84607 6.16315 7.30938 6.22357 7.86138 5.97459ZM7.51077 13.6265C7.90103 13.6265 8.1786 13.6265 8.45616 13.6265C8.56051 13.6265 8.66486 13.6421 8.73999 13.5421C8.84433 13.3952 8.74938 12.2347 8.60851 12.093C8.14625 11.6242 7.67773 11.1616 7.21129 10.698C7.03286 10.5199 6.82312 10.4293 6.61651 10.6241C6.16364 11.0533 5.72851 11.5002 5.28607 11.9388C5.18173 12.043 5.15355 12.1545 5.27251 12.2514C5.98729 12.8295 6.38173 13.9536 7.51077 13.6265ZM1.84886 13.5796H5.53547C5.01894 13.0504 4.55042 12.5545 4.06103 12.0805C3.90764 11.9315 3.6979 11.9763 3.53929 12.1138C3.0019 12.5764 2.47077 13.0431 1.84886 13.5838V13.5796ZM5.0012 1.98975C5.27773 1.98975 5.55425 1.97725 5.83077 1.98975C6.14381 2.00642 6.14381 1.81994 6.14903 1.59179C6.15425 1.36364 6.11668 1.19279 5.81929 1.20112C5.30381 1.21779 4.78207 1.21883 4.26033 1.20216C3.95877 1.19279 3.83042 1.27821 3.82729 1.60742C3.82729 1.95433 3.98799 2.00955 4.27181 1.99392C4.51599 1.97934 4.75912 1.9908 5.0012 1.98975Z" fill="#FA8B02" stroke="#FA8B02" stroke-width="0.2"/>
</svg>
