<svg width="22" height="25" viewBox="0 0 22 25" fill="none" xmlns="http://www.w3.org/2000/svg">
<path d="M11.0008 24.4996H1.30156C0.467209 24.4996 0.258622 24.2545 0.207518 23.416C0.109482 21.6795 0.636164 20.2058 1.92419 19.0127C2.44566 18.5309 3.06307 18.2201 3.69718 17.9302C4.7878 17.4324 5.91635 17.0222 7.07211 16.7037C7.42567 16.5994 7.60714 16.4294 7.66763 16.0852C7.72186 15.7723 7.79591 15.473 7.85223 15.1664C8.01075 14.2903 7.89811 13.5467 7.05438 13.0044C6.45469 12.6185 6.16476 11.9906 6.20648 11.2543C6.22212 10.9915 6.13347 10.8622 5.88108 10.7569C5.06446 10.4179 4.62122 9.79005 4.62956 8.89626C4.63477 8.02854 5.05508 7.40486 5.85814 7.07425C6.11574 6.96996 6.16476 6.85941 6.122 6.58199C6.0177 5.89782 5.75906 5.3774 5.04047 5.16777C4.81103 5.10207 4.60349 4.95918 4.39073 4.83925C3.76497 4.48986 3.41141 3.95275 3.41037 3.23417C3.41037 2.4916 3.77435 1.94197 4.42932 1.59989C5.36796 1.10867 6.38899 0.893826 7.42358 0.75303C10.1456 0.383831 12.8625 0.401561 15.5658 0.925114C16.2507 1.04858 16.915 1.26765 17.539 1.5759C18.2179 1.92007 18.6038 2.47074 18.6028 3.23521C18.6028 3.97674 18.2284 4.52011 17.5755 4.86636C17.223 5.05409 16.8705 5.24495 16.5054 5.40452C16.3836 5.44876 16.2762 5.52568 16.1951 5.62684C16.1139 5.72801 16.0622 5.84954 16.0455 5.97813C15.9965 6.26807 15.8369 6.56634 15.8734 6.83751C15.9099 7.10867 16.3146 7.0972 16.5315 7.25468C17.1416 7.70627 17.4316 8.29762 17.3805 9.0527C17.3273 9.83281 16.9289 10.4085 16.2207 10.712C15.8912 10.8528 15.7858 11.0145 15.7983 11.3597C15.8255 12.0543 15.4656 12.5684 14.9703 13.0284C14.6574 13.312 14.1818 13.482 14.1359 13.9743C14.0548 14.8082 14.1665 15.6497 14.4623 16.4335C14.5437 16.6421 14.769 16.6369 14.9452 16.6932C16.3365 17.1323 17.7351 17.563 19.0127 18.2848C21.4437 19.6593 21.9454 21.6221 21.7733 23.7852C21.7337 24.2837 21.3864 24.4975 20.9066 24.4996C19.8978 24.4996 18.8896 24.4996 17.8821 24.4996H11.0008ZM6.21482 7.79388C5.62035 8.06608 5.38881 8.46344 5.40759 8.99012C5.42532 9.49803 5.82476 10.0164 6.32537 10.0539C6.97095 10.1029 7.05542 10.4627 7.00432 10.9686C6.96194 11.2625 7.00234 11.5625 7.12098 11.8348C7.23962 12.1071 7.43181 12.3409 7.67597 12.51C8.08449 12.8062 8.46344 13.1412 8.80755 13.5102C9.53761 14.332 10.4241 14.6418 11.5077 14.5072C11.8675 14.4634 12.1825 14.3863 12.4557 14.1443C13.0554 13.6155 13.6395 13.067 14.2673 12.5736C14.8263 12.1346 15.0818 11.6058 15.0036 10.905C14.9515 10.4304 15.0579 10.1144 15.644 10.0643C16.1728 10.0205 16.567 9.50325 16.6066 8.97865C16.6421 8.50412 16.3574 8.08068 15.8526 7.86688C15.7577 8.064 15.8223 8.27258 15.8036 8.47387C15.7806 8.71375 15.668 8.87436 15.4198 8.89104C15.1715 8.90773 15.037 8.74608 15.0151 8.50724C14.9925 8.31719 14.9897 8.12531 15.0068 7.93467C15.0558 7.5248 14.9025 7.44345 14.5041 7.49664C12.2617 7.79679 9.99017 7.80871 7.7448 7.5321C7.01475 7.44449 7.01475 7.44345 7.00328 8.21001C7.00433 8.32899 6.99631 8.44788 6.97929 8.56565C6.96504 8.65595 6.91902 8.7382 6.84952 8.79759C6.78002 8.85698 6.6916 8.88961 6.60018 8.88961C6.50876 8.88961 6.42035 8.85698 6.35085 8.79759C6.28135 8.7382 6.23533 8.65595 6.22108 8.56565C6.20474 8.3087 6.20265 8.05105 6.21482 7.79388ZM17.7914 3.22165C17.7914 2.77111 17.5494 2.477 17.1656 2.28301C16.6655 2.03851 16.1358 1.85973 15.5898 1.75112C13.0346 1.19628 10.4564 1.20045 7.87204 1.49143C6.83745 1.60824 5.80912 1.80431 4.86213 2.2705C4.23637 2.58338 4.00171 3.22896 4.35631 3.73686C4.75471 4.30735 5.44305 4.45023 6.025 4.73599C6.08341 4.76415 6.21169 4.67342 6.29512 4.61919C6.85863 4.27144 7.48648 4.04087 8.14112 3.94128C9.74306 3.64926 11.3596 3.65656 12.9668 3.8057C13.9576 3.89748 14.9275 4.0852 15.7671 4.67446C15.8224 4.71557 15.8892 4.73845 15.9581 4.73994C16.0271 4.74144 16.0948 4.72147 16.1519 4.68281C16.5357 4.48256 16.9299 4.29901 17.3075 4.08625C17.4609 4.00175 17.5877 3.87599 17.6734 3.72319C17.7591 3.5704 17.8003 3.39667 17.7924 3.22165H17.7914ZM10.9967 6.89278C12.2109 6.93872 13.4267 6.86044 14.625 6.65917C14.8044 6.62892 14.9995 6.64039 15.109 6.42346C15.5397 5.57243 15.3968 5.20949 14.4926 4.91225C14.378 4.87032 14.261 4.83549 14.1422 4.80796C12.0763 4.39923 9.9504 4.39923 7.88456 4.80796C7.64604 4.8542 7.41485 4.93243 7.19726 5.04053C6.9553 5.1636 6.5715 5.22305 6.71334 5.64335C6.84892 6.04383 6.71334 6.59137 7.41524 6.6769C8.6094 6.82604 9.79521 6.93346 10.9967 6.89278ZM11.4045 21.4699C11.4045 21.1747 11.4045 20.8796 11.4045 20.5844C11.4045 19.5863 11.8884 19.2568 12.8135 19.6552C14.4144 20.3435 15.401 21.5512 15.7159 23.2679C15.789 23.6684 15.9809 23.7372 16.3135 23.6924C16.7537 23.634 16.4877 23.3242 16.5034 23.1261C16.4957 22.9876 16.4669 22.8511 16.4178 22.7214C16.1037 21.4811 15.3736 20.3861 14.3494 19.6193C13.3251 18.8525 12.0688 18.4603 10.7902 18.5083C9.51166 18.5563 8.28825 19.0415 7.32435 19.8829C6.36045 20.7243 5.71442 21.8709 5.49415 23.1313C5.4055 23.6465 5.53691 23.7789 6.01562 23.6965C6.3285 23.6423 6.25028 23.3837 6.28887 23.2095C6.6831 21.4209 7.72603 20.1933 9.44479 19.5655C10.1154 19.3204 10.5816 19.6625 10.6035 20.3769C10.6181 20.8462 10.6035 21.3155 10.6035 21.7838C10.6035 22.3647 10.7193 22.978 10.082 23.3545C10.0581 23.3658 10.0366 23.3818 10.0189 23.4016C10.0012 23.4213 9.98759 23.4443 9.97886 23.4694C9.97013 23.4944 9.96645 23.5209 9.96805 23.5474C9.96964 23.5739 9.97648 23.5997 9.98815 23.6235C10.0518 23.7278 10.1738 23.6924 10.2729 23.6934C10.7245 23.6934 11.1761 23.6997 11.6287 23.6934C11.7601 23.6934 11.9416 23.7591 12.0104 23.6194C12.0959 23.4483 11.9301 23.3065 11.8133 23.2408C11.4191 23.0072 11.3721 22.6557 11.3961 22.2531C11.4191 21.9924 11.4045 21.7306 11.4045 21.4699ZM5.48789 18.1982L5.3836 18.0939C4.78391 18.3525 4.16754 18.5809 3.58662 18.8761C1.77922 19.7928 0.924014 21.2748 1.00015 23.3054C1.01058 23.587 1.07837 23.7101 1.38082 23.7049C2.35179 23.6913 3.32276 23.6965 4.29373 23.7049C4.52005 23.7049 4.63269 23.6517 4.65772 23.392C4.707 22.8554 4.83273 22.3286 5.03109 21.8276C5.12078 21.6044 5.09366 21.5032 4.83502 21.424C4.0111 21.1716 3.85779 20.7127 4.32711 19.9806C4.71195 19.383 5.10201 18.7916 5.48789 18.1982ZM16.4919 18.1513C16.9091 18.801 17.3127 19.4028 17.6986 20.0108C18.1429 20.7106 17.977 21.1789 17.1854 21.4209C16.9477 21.4928 16.8726 21.571 16.9685 21.814C17.1711 22.3138 17.2977 22.8411 17.344 23.3784C17.369 23.6726 17.515 23.7018 17.7486 23.6997C18.7019 23.6934 19.6562 23.6903 20.6094 23.6997C20.8962 23.6997 20.9911 23.611 21.0047 23.3138C21.1413 20.4687 19.2859 18.8448 16.4919 18.1513ZM8.73142 14.6001C8.6532 15.2363 8.60314 15.8412 8.40915 16.42C8.36848 16.541 8.36326 16.6672 8.51345 16.7245C9.32485 17.0301 10.1352 17.3346 10.9497 17.6308C11.0352 17.6454 11.123 17.633 11.2011 17.5954C11.9311 17.3242 12.6612 17.0478 13.3912 16.7725C13.5258 16.7214 13.6676 16.6609 13.6092 16.4805C13.4111 15.8777 13.3652 15.2436 13.2651 14.6115C11.7455 15.6044 10.2697 15.6221 8.73142 14.6001ZM12.2117 21.5137C12.2586 21.8266 12.1074 22.2135 12.291 22.5431C12.9459 23.7028 12.9553 23.6976 14.3174 23.6903C14.4039 23.6903 14.4915 23.683 14.5771 23.6903C14.916 23.7247 14.9995 23.586 14.9202 23.2616C14.623 22.0497 13.9461 21.1309 12.8427 20.5417C12.2461 20.2225 12.2169 20.2507 12.2169 20.9432L12.2117 21.5137ZM9.79 21.5971C9.79 21.1977 9.78374 20.9202 9.79 20.6439C9.79625 20.3675 9.69092 20.308 9.44687 20.4196C8.14842 20.9964 7.37352 21.9924 7.06794 23.3691C7.02101 23.5839 7.08463 23.6986 7.32346 23.6965C7.80738 23.6965 8.29234 23.6965 8.77731 23.6965C8.8816 23.6965 9.01197 23.7049 9.05056 23.5922C9.29252 22.882 10.1196 22.3793 9.79521 21.5971H9.79ZM7.51431 18.6769C7.30573 18.5006 7.0888 18.3703 6.93653 18.1888C6.71126 17.9208 6.58715 17.9573 6.41506 18.2409C6.00623 18.9043 5.5609 19.5457 5.14685 20.2069C5.07385 20.3237 4.80999 20.4822 5.04986 20.6188C5.24698 20.7315 5.5171 20.8566 5.72151 20.5218C6.10635 19.8961 6.63408 19.3913 7.21708 18.946C7.29217 18.8897 7.36309 18.8167 7.51431 18.6811V18.6769ZM15.3833 17.9781C15.279 17.9687 14.5739 18.6592 14.5948 18.7249C14.6194 18.7878 14.6613 18.8424 14.7158 18.8824C15.3575 19.3586 15.9127 19.9413 16.3574 20.6053C16.5326 20.8723 16.7943 20.7096 16.9643 20.6199C17.1823 20.5072 16.957 20.3529 16.8913 20.2476C16.4658 19.5738 16.0257 18.9084 15.5877 18.243C15.522 18.1481 15.4427 18.0584 15.3833 17.9823V17.9781ZM12.7759 17.8603C13.6916 18.4245 13.7552 18.4224 14.3601 17.7685C14.4436 17.6788 14.6449 17.5995 14.5343 17.4483C14.4446 17.3284 14.259 17.318 14.1004 17.3753C13.6655 17.5359 13.2369 17.6955 12.7728 17.8645L12.7759 17.8603ZM9.32485 17.8843C8.77209 17.6851 8.33615 17.5234 7.89811 17.3711C7.74167 17.3169 7.55916 17.3357 7.47364 17.4671C7.40063 17.5808 7.57793 17.6611 7.63634 17.757C7.97216 18.2576 8.38204 18.4151 8.91915 18.0574C9.0493 17.9919 9.18381 17.9354 9.32172 17.8884L9.32485 17.8843Z" fill="#FA8B02"/>
<path d="M11.0009 12.4935C10.7245 12.4935 10.4471 12.5081 10.1728 12.4873C10.1246 12.4863 10.0771 12.4758 10.0331 12.4564C9.98899 12.437 9.94921 12.409 9.91603 12.3741C9.88285 12.3391 9.85694 12.298 9.83979 12.253C9.82264 12.2079 9.81459 12.16 9.81612 12.1118C9.81031 12.0637 9.81458 12.0149 9.82866 11.9685C9.84274 11.9221 9.86632 11.8791 9.89791 11.8423C9.9295 11.8055 9.9684 11.7757 10.0121 11.7548C10.0559 11.7339 10.1035 11.7223 10.1519 11.7207C10.7203 11.6999 11.2908 11.6999 11.8592 11.7207C11.9077 11.7225 11.9553 11.7343 11.999 11.7556C12.0426 11.7769 12.0813 11.8071 12.1126 11.8442C12.1438 11.8814 12.1669 11.9247 12.1804 11.9713C12.1939 12.0179 12.1975 12.0669 12.1909 12.115C12.1923 12.2121 12.1551 12.3059 12.0874 12.3757C12.0198 12.4455 11.9272 12.4856 11.83 12.4873C11.5547 12.5113 11.2773 12.4935 11.0009 12.4935Z" fill="#FA8B02"/>
<path d="M9.0652 8.11279C9.33428 8.14095 9.73893 8.0085 9.77022 8.52162C9.78378 8.74168 9.23728 9.27984 9.01827 9.28714C8.79925 9.29444 8.20791 8.72917 8.20374 8.51015C8.20374 8.21709 8.42901 8.11279 9.0652 8.11279Z" fill="#FA8B02"/>
<path d="M13.0179 8.11279C13.3308 8.13052 13.7219 8.02102 13.7938 8.50181C13.8262 8.71039 13.216 9.29027 12.9949 9.28922C12.7738 9.28818 12.2419 8.75003 12.2294 8.5331C12.2096 8.21083 12.3963 8.11279 13.0179 8.11279Z" fill="#FA8B02"/>
<path d="M11.0123 10.9227C10.8578 10.9251 10.7033 10.9153 10.5503 10.8935C10.4543 10.881 10.3668 10.8319 10.306 10.7566C10.2452 10.6812 10.2158 10.5853 10.2238 10.4888C10.2225 10.4408 10.2306 10.3929 10.248 10.3481C10.2653 10.3033 10.2913 10.2623 10.3246 10.2277C10.3579 10.193 10.3978 10.1653 10.4419 10.1462C10.486 10.1271 10.5335 10.117 10.5816 10.1165C10.8214 10.0988 11.0624 10.104 11.3033 10.105C11.5807 10.105 11.7893 10.2156 11.7789 10.5222C11.7705 10.7923 11.5765 10.9029 11.3231 10.9144C11.2188 10.9196 11.1145 10.9144 11.0102 10.9144L11.0123 10.9227Z" fill="#FA8B02"/>
<path d="M11.0467 12.8979C11.1844 12.9052 11.3231 12.8979 11.4639 12.9209C11.5513 12.9281 11.6329 12.9676 11.6928 13.0315C11.7527 13.0955 11.7868 13.1795 11.7883 13.2671C11.806 13.482 11.6975 13.6541 11.4827 13.6843C11.1924 13.7149 10.9 13.7205 10.6087 13.701C10.5562 13.7023 10.5039 13.6924 10.4555 13.672C10.407 13.6515 10.3635 13.621 10.3278 13.5824C10.2921 13.5438 10.265 13.4981 10.2483 13.4482C10.2317 13.3984 10.2258 13.3455 10.2312 13.2932C10.2416 13.0533 10.398 12.924 10.639 12.9146C10.7766 12.9146 10.9143 12.9146 11.0561 12.9146L11.0467 12.8979Z" fill="#FA8B02"/>
</svg>
