<svg width="16" height="25" viewBox="0 0 16 25" fill="none" xmlns="http://www.w3.org/2000/svg">
<path d="M3.46707 15.7108L3.46707 15.7108C2.50072 14.4577 1.54305 13.1933 0.913366 11.712L0.913294 11.7118C0.24752 10.1294 0.123335 8.37138 0.560056 6.71111C0.996776 5.05085 1.96992 3.58144 3.32812 2.53145L3.32835 2.53127C4.67241 1.50443 6.31719 0.948729 8.00861 0.950002C9.70003 0.951275 11.344 1.50945 12.6865 2.53832L12.6867 2.53849C14.0432 3.59077 15.0132 5.0624 15.4455 6.72383C15.8778 8.38526 15.748 10.143 15.0764 11.723L15.0764 11.723C14.4598 13.1722 13.5272 14.4135 12.5868 15.6447L12.5331 15.715C12.0662 16.3264 11.5978 16.9397 11.1071 17.5336C11.0434 17.6108 10.9972 17.673 10.9693 17.7241C10.9408 17.7764 10.9368 17.8078 10.942 17.8273C10.9467 17.8447 10.9628 17.8669 11.0147 17.8903C11.0664 17.9137 11.1444 17.934 11.2553 17.9523C11.2554 17.9523 11.2555 17.9523 11.2556 17.9523L3.46707 15.7108ZM3.46707 15.7108C3.82671 16.177 4.18894 16.6412 4.55868 17.115C4.74591 17.355 4.93508 17.5974 5.12681 17.8438C4.972 17.8799 4.82004 17.9142 4.6706 17.948C4.2318 18.0471 3.81481 18.1413 3.41188 18.2605M3.46707 15.7108L15.2 19.6752M15.2 19.6752L15.2009 19.6761L15.2008 19.6761C15.5246 20.0427 15.6876 20.4524 15.6845 20.8633C15.6814 21.2743 15.5122 21.6812 15.1813 22.0423C14.5667 22.7137 13.763 23.0749 12.9332 23.3388L12.9331 23.3388C10.8824 23.9889 8.77446 24.1532 6.64203 23.9928L6.64201 23.9928C5.1577 23.8807 3.6875 23.6603 2.30618 23.0391M15.2 19.6752C14.9013 19.3529 14.5487 19.0849 14.1582 18.8833L15.2 19.6752ZM2.30618 23.0391C2.30595 23.039 2.30572 23.0389 2.30549 23.0388L2.326 22.9932M2.30618 23.0391C2.3064 23.0392 2.30661 23.0393 2.30683 23.0394L2.326 22.9932M2.30618 23.0391C1.82432 22.8391 1.38016 22.5582 0.99286 22.2086L0.991718 22.2075C0.549377 21.7824 0.322241 21.3125 0.323797 20.8394C0.325354 20.3662 0.555712 19.8997 1.00843 19.4815C1.69364 18.8479 2.53612 18.5053 3.41188 18.2605M2.326 22.9932C1.84915 22.7953 1.40961 22.5174 1.02636 22.1715L15.1634 19.7092C15.7972 20.427 15.7922 21.3017 15.1444 22.0085C14.5385 22.6703 13.7448 23.0282 12.918 23.2912C10.8746 23.939 8.77318 24.1029 6.64578 23.943C5.16319 23.831 3.69961 23.6111 2.326 22.9932ZM3.41188 18.2605C3.41175 18.2605 3.41163 18.2606 3.4115 18.2606L3.42569 18.3086L3.41223 18.2604C3.41211 18.2604 3.412 18.2605 3.41188 18.2605ZM1.86812 21.7196C2.30954 22.0196 2.79253 22.2534 3.30172 22.4134L1.89647 21.6784M1.86812 21.7196L1.89672 21.6786C1.89664 21.6785 1.89656 21.6785 1.89647 21.6784M1.86812 21.7196C1.08235 21.1718 1.07435 20.5689 1.84813 20.0131L1.86812 21.7196ZM1.89647 21.6784C2.33378 21.9756 2.81227 22.2072 3.31671 22.3657L3.31705 22.3658C4.8311 22.8536 6.39417 23.0162 7.97897 23.0452C8.90943 23.0484 9.83852 22.9734 10.7564 22.8209L10.7576 22.8207L10.7576 22.8208C11.4311 22.726 12.0937 22.5661 12.7363 22.3433C13.3165 22.1326 13.8799 21.8974 14.3337 21.4799C14.5585 21.2731 14.667 21.0605 14.6676 20.854C14.6682 20.6478 14.5613 20.4351 14.3277 20.2277C14.1156 20.0456 13.8841 19.8876 13.6373 19.7563L13.6367 19.756C12.6653 19.2207 11.5936 19.0198 10.5072 18.8327L10.5071 18.8327C10.3589 18.807 10.2473 18.8199 10.1537 18.8649C10.0592 18.9102 9.97696 18.9909 9.89293 19.1119L9.89272 19.1122C9.56392 19.5779 9.22281 20.0349 8.88233 20.4911C8.76478 20.6486 8.64729 20.806 8.53042 20.9636C8.43665 21.0903 8.34788 21.188 8.26041 21.254C8.17248 21.3203 8.08332 21.3564 7.99035 21.355C7.89753 21.3535 7.8086 21.3146 7.72081 21.2459C7.63338 21.1775 7.54441 21.0775 7.45022 20.9484C7.31099 20.7586 7.17233 20.5677 7.03366 20.3769C6.91768 20.2173 6.8017 20.0576 6.6854 19.8986L6.68539 19.8986C6.4656 19.5979 6.30287 19.3753 6.15863 19.214C6.01485 19.0531 5.89317 18.9575 5.75731 18.9069C5.62138 18.8562 5.46531 18.8484 5.24836 18.8749C5.03081 18.9015 4.75782 18.9617 4.3892 19.0432C3.49167 19.2426 2.62784 19.5138 1.87733 20.0537L1.8773 20.0537C1.49539 20.328 1.32009 20.6044 1.32329 20.8687C1.32649 21.1332 1.50864 21.4079 1.89647 21.6784ZM14.6705 8.81124L14.6705 8.81243C14.7052 10.2746 14.1072 11.691 13.2341 13.0176L13.2341 13.0176C12.5665 14.0335 11.8296 14.9978 11.0791 15.954C10.9127 16.1659 10.7457 16.3774 10.5787 16.589C9.99225 17.3317 9.40515 18.0752 8.84485 18.8388C8.77655 18.9318 8.70754 19.0246 8.63844 19.1175C8.47871 19.3324 8.31847 19.548 8.16532 19.7675L8.16531 19.7676C8.13313 19.8137 8.10426 19.8505 8.07703 19.8769C8.04957 19.9034 8.0275 19.9157 8.00941 19.9193C7.97947 19.9252 7.92949 19.9108 7.84754 19.7926L7.84743 19.7925C7.09444 18.7149 6.2807 17.6832 5.46797 16.6527C5.38348 16.5456 5.299 16.4384 5.21459 16.3313C4.31796 15.193 3.43016 14.0503 2.63167 12.8406C1.59168 11.2627 1.11087 9.5434 1.38674 7.65288C1.63627 5.98248 2.50771 4.46803 3.82652 3.41292C5.14531 2.35781 6.81406 1.83994 8.49849 1.96305C11.9905 2.23293 14.6705 5.13754 14.6705 8.81124Z" fill="#FA8B02" stroke="#FA8B02" stroke-width="0.1"/>
<path d="M10.2453 10.891C10.8443 10.2946 11.1817 9.4846 11.1835 8.63933C11.1844 8.22079 11.1028 7.80618 10.9434 7.41917C10.784 7.03216 10.55 6.68033 10.2547 6.38376C9.95933 6.0872 9.60848 5.85171 9.22213 5.69074C8.83578 5.52977 8.42151 5.44648 8.00298 5.44561C7.58444 5.44475 7.16983 5.52632 6.78282 5.68569C6.39581 5.84506 6.04398 6.07909 5.74741 6.37443C5.14847 6.97089 4.81101 7.78085 4.80926 8.62612C4.80751 9.4714 5.14161 10.2828 5.73808 10.8817C6.33454 11.4806 7.1445 11.8181 7.98977 11.8198C8.83505 11.8216 9.6464 11.4875 10.2453 10.891ZM9.52846 7.07273C9.94233 7.47854 10.178 8.03213 10.1837 8.61172C10.1894 9.19132 9.96467 9.74944 9.55887 10.1633C9.15306 10.5772 8.59947 10.8129 8.01988 10.8186C7.44028 10.8243 6.88216 10.5995 6.46829 10.1937C6.05442 9.78792 5.8187 9.23432 5.813 8.65473C5.8073 8.07513 6.03207 7.51701 6.43788 7.10314C6.84368 6.68927 7.39727 6.45356 7.97687 6.44785C8.55647 6.44215 9.11459 6.66693 9.52846 7.07273Z" fill="#FA8B02" stroke="#FA8B02" stroke-width="0.1"/>
</svg>
