<svg width="24" height="17" viewBox="0 0 24 17" fill="none" xmlns="http://www.w3.org/2000/svg">
<path d="M23.4001 8.52715C23.9158 8.46647 23.9989 8.21142 23.9989 7.7822C23.9937 6.99569 23.9954 6.20917 23.9972 5.42265C23.9981 5.02939 23.9989 4.63614 23.9989 4.24288C23.9978 3.4249 23.9709 3.37321 23.1473 3.38894M23.4001 8.52715L23.1454 3.28896L23.1473 3.38894M23.4001 8.52715C23.0224 8.5685 22.6733 8.74819 22.4202 9.03158M23.4001 8.52715L22.4202 9.03158M23.1473 3.38894C22.7259 3.39681 22.6046 3.23614 22.5664 2.84512L22.6659 2.8354C22.6659 2.83545 22.6659 2.8355 22.6659 2.83554C22.6847 3.0274 22.7224 3.13423 22.784 3.19602C22.8428 3.25501 22.944 3.29271 23.1453 3.28896M23.1473 3.38894L23.1453 3.28896M23.1453 3.28896C23.3502 3.28505 23.5136 3.28502 23.6405 3.30154C23.7677 3.31811 23.8752 3.35318 23.9533 3.43364C24.0307 3.51346 24.0639 3.62229 24.0804 3.74926C24.0969 3.87646 24.0987 4.03984 24.0989 4.24274V4.24288C24.0989 4.63661 24.0981 5.03011 24.0972 5.42347C24.0954 6.20971 24.0937 6.99544 24.0989 7.78154L24.0989 7.7822C24.0989 7.99785 24.0795 8.19683 23.9755 8.34922C23.8672 8.50805 23.6838 8.59446 23.4118 8.62646L23.4109 8.62656C23.0578 8.66522 22.7315 8.83322 22.4948 9.09819C22.2582 9.36316 22.1279 9.70634 22.1293 10.0616L22.1293 10.065L22.1292 10.065C22.1182 10.4282 22.2435 10.7824 22.4805 11.0579C22.7175 11.3334 23.049 11.5103 23.4098 11.5537L23.4129 11.5541L23.4129 11.5541C23.6587 11.5915 23.8329 11.674 23.9395 11.8235C24.0433 11.969 24.0681 12.1586 24.0652 12.3735C24.0484 13.6089 24.0417 14.8437 24.0652 16.078L24.0652 16.0781C24.0704 16.3556 24.0228 16.5715 23.8762 16.7133C23.7308 16.854 23.5122 16.898 23.2389 16.8968C20.317 16.8837 17.3911 16.8849 14.4644 16.886C13.628 16.8864 12.7916 16.8867 11.9551 16.8867H0.831527C0.640148 16.8867 0.485239 16.8833 0.363322 16.8644C0.240847 16.8455 0.137022 16.8089 0.0602805 16.731C-0.0162505 16.6533 -0.0518758 16.5486 -0.0703554 16.4251C-0.0887857 16.302 -0.092068 16.1455 -0.092068 15.9519C-0.092068 15.6186 -0.0912005 15.2856 -0.0903332 14.9526C-0.0880797 14.0874 -0.0858279 13.2229 -0.0987976 12.3579L23.1453 3.28896ZM22.385 0.776851C22.3575 0.498781 22.2743 0.298825 22.104 0.190873C21.9387 0.0860113 21.72 0.087555 21.4729 0.133313L21.4726 0.133354C20.8263 0.254541 20.176 0.350501 19.526 0.446406C19.3648 0.470192 19.2037 0.493973 19.0426 0.518136C12.9168 1.43498 6.78995 2.34283 0.661958 3.24169L0.661879 3.2417C0.429749 3.27594 0.237434 3.34169 0.106407 3.47886C-0.0268953 3.61841 -0.0799349 3.81366 -0.075198 4.06714C-0.0527521 5.31963 -0.0594808 6.57354 -0.0718385 7.82728C-0.0741468 8.04555 -0.0436923 8.23286 0.067426 8.37398C0.180062 8.51703 0.358858 8.59205 0.603079 8.62618L0.603077 8.6262L0.604981 8.62643C0.95774 8.66885 1.28244 8.83995 1.51686 9.10695C1.75128 9.37394 1.87893 9.71805 1.87535 10.0733H1.87529L1.87538 10.0769C1.88467 10.4402 1.75715 10.7937 1.51809 11.0674C1.27904 11.3411 0.945888 11.515 0.584655 11.5547L0.584647 11.5546L0.58098 11.5552C0.345872 11.5899 0.166438 11.6624 0.0502486 11.8029C-0.0654793 11.9428 -0.102303 12.1309 -0.0987984 12.3579L22.385 0.776851ZM22.385 0.776851L22.2855 0.786697L22.385 0.776795C22.385 0.776814 22.385 0.776832 22.385 0.776851ZM1.21692 4.10917C6.43939 4.11591 11.6622 4.11591 16.8855 4.10917C17.2169 4.10917 17.381 4.21029 17.345 4.55861C17.3375 4.63351 17.34 4.70842 17.3425 4.78333C17.3438 4.82078 17.345 4.85823 17.345 4.89569L0.758494 4.55861C0.751752 4.20917 0.879842 4.10917 1.21692 4.10917ZM1.21692 4.10917V4.20917C1.21688 4.20917 1.21683 4.20917 1.21679 4.20917M1.21692 4.10917L1.21679 4.20917M17.6738 14.6957C17.5338 14.6976 17.4234 14.7345 17.3442 14.8082C17.2659 14.8812 17.2317 14.9777 17.2179 15.0713C17.2041 15.1644 17.2088 15.2643 17.2166 15.3545C17.2196 15.39 17.223 15.4231 17.2262 15.4545C17.2316 15.5077 17.2365 15.5559 17.2383 15.6018C17.2457 15.805 17.1988 15.8807 17.146 15.9173C17.0809 15.9625 16.9723 15.9766 16.7922 15.9766H16.7771H16.7619H16.7468H16.7316H16.7165H16.7013H16.6862H16.6711H16.6559H16.6408H16.6256H16.6105H16.5954H16.5802H16.5651H16.5499H16.5348H16.5196H16.5045H16.4894H16.4742H16.4591H16.4439H16.4288H16.4136H16.3985H16.3834H16.3682H16.3531H16.3379H16.3228H16.3076H16.2925H16.2774H16.2622H16.2471H16.2319H16.2168H16.2017H16.1865H16.1714H16.1562H16.1411H16.1259H16.1108H16.0957H16.0805H16.0654H16.0502H16.0351H16.0199H16.0048H15.9897H15.9745H15.9594H15.9442H15.9291H15.914H15.8988H15.8837H15.8685H15.8534H15.8382H15.8231H15.808H15.7928H15.7777H15.7625H15.7474H15.7322H15.7171H15.702H15.6868H15.6717H15.6565H15.6414H15.6263H15.6111H15.596H15.5808H15.5657H15.5505H15.5354H15.5203H15.5051H15.49H15.4748H15.4597H15.4445H15.4294H15.4143H15.3991H15.384H15.3688H15.3537H15.3385H15.3234H15.3083H15.2931H15.278H15.2628H15.2477H15.2326H15.2174H15.2023H15.1871H15.172H15.1568H15.1417H15.1266H15.1114H15.0963H15.0811H15.066H15.0508H15.0357H15.0206H15.0054H14.9903H14.9751H14.96H14.9449H14.9297H14.9146H14.8994H14.8843H14.8691H14.854H14.8389H14.8237H14.8086H14.7934H14.7783H14.7631H14.748H14.7329H14.7177H14.7026H14.6874H14.6723H14.6571H14.642H14.6269H14.6117H14.5966H14.5814H14.5663H14.5512H14.536H14.5209H14.5057H14.4906H14.4754H14.4603H14.4452H14.43H14.4149H14.3997H14.3846H14.3694H14.3543H14.3392H14.324H14.3089H14.2937H14.2786H14.2635H14.2483H14.2332H14.218H14.2029H14.1877H14.1726H14.1575H14.1423H14.1272H14.112H14.0969H14.0817H14.0666H14.0515H14.0363H14.0212H14.006H13.9909H13.9757H13.9606H13.9455H13.9303H13.9152H13.9H13.8849H13.8698H13.8546H13.8395H13.8243H13.8092H13.794H13.7789H13.7638H13.7486H13.7335H13.7183H13.7032H13.688H13.6729H13.6578H13.6426H13.6275H13.6123H13.5972H13.5821H13.5669H13.5518H13.5366H13.5215H13.5063H13.4912H13.4761H13.4609H13.4458H13.4306H13.4155H13.4003H13.3852H13.3701H13.3549H13.3398H13.3246H13.3095H13.2944H13.2792H13.2641H13.2489H13.2338H13.2186H13.2035H13.1884H13.1732H13.1581H13.1429H13.1278H13.1126H13.0975H13.0824H13.0672H13.0521H13.0369H13.0218H13.0066H12.9915H12.9764H12.9612H12.9461H12.9309H12.9158H12.9007H12.8855H12.8704H12.8552H12.8401H12.8249H12.8098H12.7947H12.7795H12.7644H12.7492H12.7341H12.7189H12.7038H12.6887H12.6735H12.6584H12.6432H12.6281H12.613H12.5978H12.5827H12.5675H12.5524H12.5372H12.5221H12.507H12.4918H12.4767H12.4615H12.4464H12.4312H12.4161H12.401H12.3858H12.3707H12.3555H12.3404H12.3253H12.3101H12.295H12.2798H12.2647H12.2495H12.2344H12.2193H12.2041H12.189H12.1738H12.1587H12.1435H12.1284H12.1133H12.0981H12.083H12.0678H12.0527H12.0375H12.0224H12.0073H11.9921H11.977H11.9618H11.9467H11.9316H11.9164H11.9013H11.8861H11.871H11.8558H11.8407H11.8256H11.8104H11.7953H11.7801H11.765H11.7498H11.7347H11.7196H11.7044H11.6893H11.6741H11.659H11.6439H11.6287H11.6136H11.5984H11.5833H11.5681H11.553H11.5379H11.5227H11.5076H11.4924H11.4773H11.4621H11.447H11.4319H11.4167H11.4016H11.3864H11.3713H11.3561H11.341H11.3259H11.3107H11.2956H11.2804H11.2653H11.2502H11.235H11.2199H11.2047H11.1896H11.1744H11.1593H11.1442H11.129H11.1139H11.0987H11.0836H11.0684H11.0533H11.0382H11.023H11.0079H10.9927H10.9776H10.9625H10.9473H10.9322H10.917H10.9019H10.8867H10.8716H10.8565H10.8413H10.8262H10.811H10.7959H10.7807H10.7656H10.7505H10.7353H10.7202H10.705H10.6899H10.6748H10.6596H10.6445H10.6293H10.6142H10.599H10.5839H10.5688H10.5536H10.5385H10.5233H10.5082H10.493H10.4779H10.4628H10.4476H10.4325H10.4173H10.4022H10.387H10.3719H10.3568H10.3416H10.3265H10.3113H10.2962H10.2811H10.2659H10.2508H10.2356H10.2205H10.2053H10.1902H10.1751H10.1599H10.1448H10.1296H10.1145H10.0993H10.0842H10.0691H10.0539H10.0388H10.0236H10.0085H9.99335H9.97821H9.96307H9.94792H9.93278H9.91764H9.9025H9.88736H9.87221H9.85707H9.84193H9.82679H9.81164H9.7965H9.78136H9.76622H9.75108H9.73593H9.72079H9.70565H9.69051H9.67537H9.66022H9.64508H9.62994H9.6148H9.59965H9.58451H9.56937H9.55423H9.53909H9.52394H9.5088H9.49366H9.47852H9.46337H9.44823H9.43309H9.41795H9.40281H9.38766H9.37252H9.35738H9.34224H9.32709H9.31195H9.29681H9.28167H9.26653H9.25138H9.23624H9.2211H9.20596H9.19081H9.17567H9.16053H9.14539H9.13025H9.1151H9.09996H9.08482H9.06968H9.05453H9.03939C8.43663 15.9766 7.8338 15.976 7.23088 15.9754C5.28758 15.9736 3.34341 15.9718 1.39806 15.9889C1.16097 15.9906 1.0299 15.9653 0.95603 15.9033C0.888997 15.8471 0.84352 15.7364 0.856124 15.4815C0.896548 14.673 0.882666 13.8646 0.868851 13.0601C0.867237 12.9661 0.865624 12.8722 0.864099 12.7783L0.864093 12.778C0.86146 12.6416 0.88248 12.5641 0.921672 12.5099C0.961684 12.4546 1.03249 12.4071 1.16772 12.3583C2.22306 11.9774 2.80915 11.1547 2.80681 10.1056C2.80447 9.05851 2.2101 8.20314 1.1763 7.83856C1.04572 7.79158 0.97139 7.74607 0.926996 7.69013C0.884457 7.63652 0.858596 7.55934 0.858494 7.42346C0.874227 6.46888 0.876475 5.51178 0.858476 4.55672L0.858475 4.55668C0.855242 4.38911 0.88608 4.31429 0.927141 4.27583C0.970495 4.23522 1.05185 4.20918 1.21679 4.20917M17.6738 14.6957C17.8238 14.6932 17.9419 14.7265 18.0276 14.7987C18.1134 14.871 18.1517 14.9696 18.1681 15.0664C18.1842 15.1622 18.1804 15.266 18.1739 15.3598C18.1718 15.3899 18.1695 15.4187 18.1672 15.4463C18.1621 15.5091 18.1576 15.5657 18.1574 15.6185C18.1568 15.7777 18.1784 15.8597 18.2173 15.9049C18.2524 15.9457 18.3232 15.9799 18.4932 15.9777L18.4933 15.9777C19.9358 15.9608 21.3781 15.9642 22.8201 15.9777C22.9798 15.9776 23.0646 15.9552 23.1117 15.915C23.1539 15.8789 23.1887 15.8074 23.1855 15.6391C23.1675 14.684 23.1709 13.7269 23.1855 12.7724C23.1854 12.6375 23.1628 12.5602 23.1224 12.5062C23.0812 12.4508 23.0096 12.4039 22.8755 12.3562L22.8753 12.3561C22.3536 12.1689 21.9502 11.8768 21.6763 11.4912C21.4024 11.1057 21.2626 10.6333 21.2574 10.0933L21.2574 10.0932C21.248 9.06479 21.8468 8.20338 22.8801 7.82543C23.0233 7.7724 23.1018 7.71683 23.1471 7.65222C23.192 7.58813 23.2145 7.5002 23.2124 7.35897C23.1978 6.44045 23.1922 5.52222 23.2125 4.60359L23.2125 4.60321C23.2174 4.41359 23.1852 4.32058 23.135 4.27078C23.0842 4.22042 22.9891 4.18845 22.7981 4.19118C21.8568 4.20491 20.915 4.2024 19.9733 4.1999C19.6036 4.19892 19.2338 4.19793 18.8641 4.19793C18.6735 4.19793 18.5387 4.19808 18.4387 4.2093C18.3386 4.22054 18.2939 4.24119 18.2687 4.26568C18.2432 4.29033 18.2206 4.33508 18.2054 4.43657C18.1902 4.53761 18.1846 4.67494 18.1775 4.86901C18.1731 4.99777 18.1644 5.14843 18.1059 5.26905C18.0753 5.33222 18.0303 5.38932 17.9647 5.43122C17.8995 5.47287 17.8204 5.49546 17.7275 5.50006C17.6344 5.50466 17.5527 5.48958 17.4836 5.45375C17.4139 5.41766 17.3635 5.36393 17.3282 5.3021C17.26 5.183 17.2456 5.03044 17.245 4.89611L17.245 4.89569C17.245 4.86513 17.2439 4.83143 17.2428 4.79595C17.2402 4.71738 17.2374 4.63004 17.2455 4.54866L17.2455 4.54834C17.2621 4.38761 17.2293 4.31571 17.1868 4.27823C17.1382 4.23527 17.0473 4.20918 16.8856 4.20917C11.6623 4.21591 6.43935 4.21591 1.21679 4.20917M17.6738 14.6957C17.6738 14.6957 17.6737 14.6957 17.6737 14.6957L17.6753 14.7957L17.674 14.6957C17.6739 14.6957 17.6739 14.6957 17.6738 14.6957ZM6.50017 3.31254H16.9001C17.3125 3.31254 17.7256 3.31154 18.1388 3.31054C19.2417 3.30786 20.3461 3.30518 21.4453 3.32154M6.50017 3.31254L21.4454 3.32154C21.4454 3.32154 21.4454 3.32154 21.4453 3.32154M6.50017 3.31254C7.39096 3.18247 8.28272 3.05064 9.17551 2.91706M6.50017 3.31254L21.5569 1.41249M21.4453 3.32154C21.6549 3.32431 21.7372 3.28682 21.771 3.24395C21.8063 3.19936 21.8212 3.10999 21.7829 2.91754C21.7829 2.91751 21.7829 2.91747 21.7829 2.91743L21.4453 3.32154ZM21.5569 1.41249C21.538 1.25105 21.4984 1.18245 21.4534 1.15084C21.4062 1.11769 21.3223 1.10291 21.1569 1.1303L21.1405 1.03164L21.1569 1.13028C20.264 1.27895 19.3688 1.40719 18.4738 1.53539C18.2581 1.56629 18.0424 1.59718 17.8267 1.62836L17.8264 1.62841L17.8133 1.63027C17.5897 1.66194 17.4285 1.68476 17.309 1.71419C17.1868 1.74428 17.1272 1.77721 17.0932 1.8163C17.0599 1.85449 17.0373 1.91435 17.0293 2.03309C17.0212 2.15225 17.0285 2.31149 17.0393 2.53578C17.0452 2.65706 17.036 2.78517 16.9801 2.89121C16.9202 3.00472 16.8143 3.07921 16.6599 3.10244C16.5052 3.12571 16.3802 3.0846 16.2902 2.99166C16.2066 2.90532 16.1633 2.78461 16.1408 2.66438C16.1085 2.54845 16.0896 2.42921 16.0844 2.30897L16.0841 2.30108L16.0844 2.30109C16.0919 2.09138 16.0456 2.00813 15.9909 1.97096C15.9271 1.92759 15.8113 1.91531 15.6077 1.94728C13.9885 2.20214 12.3666 2.4429 10.7455 2.68353C10.222 2.76123 9.69868 2.83892 9.17551 2.91706M21.5569 1.41249C21.5569 1.41262 21.5569 1.41276 21.5569 1.41289L21.6562 1.4013L21.5569 1.41249ZM9.17551 2.91706L9.16074 2.81816L9.17551 2.91706ZM22.4202 9.03158C22.1671 9.31497 22.0279 9.68202 22.0293 10.062L22.4202 9.03158Z" fill="#FA8B02" stroke="#FA8B02" stroke-width="0.2"/>
<path d="M13.7933 11.2137L13.7934 11.2146C13.7933 11.3302 13.7695 11.4258 13.7198 11.5013C13.6695 11.5777 13.599 11.6239 13.5239 11.6513C13.4504 11.6782 13.3703 11.688 13.2951 11.6919C13.2399 11.6948 13.1819 11.6946 13.1284 11.6944C13.1099 11.6943 13.0918 11.6943 13.0746 11.6943L13.0744 11.6944C12.1546 11.6958 11.2327 11.6953 10.3103 11.6948C9.84893 11.6946 9.3874 11.6944 8.92593 11.6944H8.91803H8.91013H8.90223H8.89433H8.88643H8.87853H8.87063H8.86273H8.85483H8.84693H8.83903H8.83113H8.82323H8.81533H8.80743H8.79953H8.79163H8.78373H8.77583H8.76792H8.76002H8.75212H8.74422H8.73632H8.72842H8.72052H8.71262H8.70472H8.69682H8.68892H8.68102H8.67312H8.66522H8.65732H8.64942H8.64152H8.63362H8.62572H8.61782H8.60992H8.60202H8.59412H8.58622H8.57832H8.57042H8.56252H8.55462H8.54672H8.53882H8.53092H8.52302H8.51512H8.50722H8.49932H8.49142H8.48351H8.47561H8.46771H8.45981H8.45191H8.44401H8.43611H8.42821H8.42031H8.41241H8.40451H8.39661H8.38871H8.38081H8.37291H8.36501H8.35711H8.34921H8.34131H8.33341H8.32551H8.31761H8.30971H8.30181H8.29391H8.28601H8.27811H8.27021H8.26231H8.25441H8.24651H8.23861H8.23071H8.22281H8.21491H8.207H8.1991H8.1912H8.1833H8.1754H8.1675H8.1596H8.1517H8.1438H8.1359H8.128H8.1201H8.1122H8.1043H8.0964H8.0885H8.0806H8.0727H8.0648H8.0569H8.049H8.0411H8.0332H8.0253H8.0174H8.0095H8.0016H7.9937H7.9858H7.9779H7.97H7.9621H7.9542H7.9463H7.9384H7.9305H7.92259H7.91469H7.90679H7.89889H7.89099H7.88309H7.87519H7.86729H7.85939H7.85149H7.84359H7.83569H7.82779H7.81989H7.81199H7.80409H7.79619H7.78829H7.78039H7.77249H7.76459H7.75669H7.74879H7.74089H7.73299H7.72509H7.71719H7.70929H7.70139H7.69349H7.68559H7.67769H7.66979H7.66189H7.65399H7.64608H7.63818H7.63028H7.62238H7.61448H7.60658H7.59868H7.59078H7.58288H7.57498H7.56708H7.55918H7.55128H7.54338H7.53548H7.52758H7.51968H7.51178H7.50388H7.49598H7.48808H7.48018H7.47228H7.46438H7.45648H7.44858H7.44068H7.43278H7.42488H7.41698H7.40908H7.40118H7.39328H7.38538H7.37748H7.36958H7.36167H7.35377H7.34587H7.33797H7.33007H7.32217H7.31427H7.30637H7.29847H7.29057H7.28267H7.27477H7.26687H7.25897H7.25107H7.24317H7.23527H7.22737H7.21947H7.21157H7.20367H7.19577H7.18787H7.17997H7.17207H7.16417H7.15627H7.14837H7.14047H7.13257H7.12467H7.11677H7.10887H7.10097H7.09307H7.08516H7.07726H7.06936H7.06146H7.05356H7.04566H7.03776H7.02986H7.02196H7.01406H7.00616H6.99826H6.99036H6.98246H6.97456H6.96666H6.95876H6.95086H6.94296H6.93506H6.92716H6.91926H6.91136H6.90346H6.89556H6.88766H6.87976H6.87186H6.86396H6.85606H6.84816H6.84026H6.83236H6.82446H6.81656H6.80866H6.80075H6.79285H6.78495H6.77705H6.76915H6.76125H6.75335H6.74545H6.73755H6.72965H6.72175H6.71385H6.70595H6.69805H6.69015H6.68225H6.67435H6.66645H6.65855H6.65065H6.64275H6.63485H6.62695H6.61905H6.61115H6.60325H6.59535H6.58745H6.57955H6.57165H6.56375H6.55585H6.54795H6.54005H6.53215H6.52425H6.51634H6.50844H6.50054H6.49264H6.48474H6.47684H6.46894H6.46104H6.45314H6.44524H6.43734H6.42944H6.42154H6.41364H6.40574H6.39784H6.38994H6.38204H6.37414H6.36624H6.35834H6.35044H6.34254H6.33464H6.32674H6.31884H6.31094H6.30304H6.29514H6.28724H6.27934H6.27144H6.26354H6.25564H6.24774H6.23983H6.23193H6.22403H6.21613H6.20823H6.20033H6.19243H6.18453H6.17663H6.16873H6.16083H6.15293H6.14503H6.13713H6.12923H6.12133H6.11343H6.10553H6.09763H6.08973H6.08183H6.07393H6.06603H6.05813H6.05023H6.04233H6.03443H6.02653H6.01863H6.01073H6.00283H5.99493H5.98703H5.97913H5.97123H5.96332H5.95542H5.94752H5.93962H5.93172H5.92382H5.91592H5.90802H5.90012H5.89222H5.88432H5.87642H5.86852H5.86062H5.85272H5.84482H5.83692H5.82902H5.82112H5.81322H5.80532H5.79742H5.78952H5.78162H5.77372H5.76582H5.75792H5.75002H5.74212H5.73422H5.72632H5.71842H5.71052H5.70262H5.69472H5.68682H5.67891H5.67101H5.66311H5.65521H5.64731H5.63941H5.63151H5.62361H5.61571H5.60781H5.59991H5.59201H5.58411H5.57621H5.56831H5.56041H5.55251H5.54461H5.53671H5.52881H5.52091H5.51301H5.50511H5.49721H5.48931H5.48141H5.47351H5.46561H5.45771H5.44981H5.44191H5.43401H5.42611H5.41821H5.41031H5.40241H5.3945H5.3866H5.3787H5.3708H5.3629H5.355H5.3471H5.3392H5.3313H5.3234H5.3155H5.3076H5.2997H5.2918H5.2839H5.276H5.2681H5.2602H5.2523H5.2444H5.2365H5.2286H5.2207H5.2128H5.2049H5.197H5.1891H5.1812H5.1733H5.1654H5.1575H5.1496H5.1417H5.1338H5.1259H5.11799H5.11009H5.10219H5.09429H5.08639H5.07849H5.07059H5.06269H5.05479H5.04689H5.03899H5.03109H5.02319H5.01529H5.00739H4.99949H4.99159H4.98369H4.97579H4.96789H4.95999H4.95209H4.94419H4.93629H4.92839H4.92049H4.91259H4.90469H4.89679H4.88889H4.88099C4.8686 11.6944 4.85584 11.6944 4.84279 11.6944C4.78487 11.6947 4.72129 11.6949 4.6599 11.6911C4.58441 11.6865 4.50419 11.6755 4.43087 11.6474C4.35594 11.6187 4.28604 11.5712 4.23711 11.4937C4.18872 11.4171 4.16692 11.3209 4.16978 11.2054L13.7933 11.2137ZM13.7933 11.2137C13.7924 11.1076 13.7688 11.0189 13.721 10.9481C13.6729 10.8769 13.6063 10.8328 13.5356 10.8058C13.4122 10.7587 13.2599 10.7591 13.1391 10.7595C13.1293 10.7595 13.1196 10.7595 13.1102 10.7595H13.0941H13.078H13.0619H13.0458H13.0296H13.0135H12.9974H12.9813H12.9652H12.9491H12.933H12.9169H12.9007H12.8846H12.8685H12.8524H12.8363H12.8202H12.8041H12.788H12.7718H12.7557H12.7396H12.7235H12.7074H12.6913H12.6752H12.6591H12.6429H12.6268H12.6107H12.5946H12.5785H12.5624H12.5463H12.5302H12.514H12.4979H12.4818H12.4657H12.4496H12.4335H12.4174H12.4013H12.3852H12.369H12.3529H12.3368H12.3207H12.3046H12.2885H12.2724H12.2563H12.2401H12.224H12.2079H12.1918H12.1757H12.1596H12.1435H12.1274H12.1112H12.0951H12.079H12.0629H12.0468H12.0307H12.0146H11.9985H11.9823H11.9662H11.9501H11.934H11.9179H11.9018H11.8857H11.8696H11.8535H11.8373H11.8212H11.8051H11.789H11.7729H11.7568H11.7407H11.7246H11.7084H11.6923H11.6762H11.6601H11.644H11.6279H11.6118H11.5957H11.5795H11.5634H11.5473H11.5312H11.5151H11.499H11.4829H11.4668H11.4506H11.4345H11.4184H11.4023H11.3862H11.3701H11.354H11.3379H11.3217H11.3056H11.2895H11.2734H11.2573H11.2412H11.2251H11.209H11.1929H11.1767H11.1606H11.1445H11.1284H11.1123H11.0962H11.0801H11.064H11.0478H11.0317H11.0156H10.9995H10.9834H10.9673H10.9512H10.9351H10.9189H10.9028H10.8867H10.8706H10.8545H10.8384H10.8223H10.8062H10.79H10.7739H10.7578H10.7417H10.7256H10.7095H10.6934H10.6773H10.6611H10.645H10.6289H10.6128H10.5967H10.5806H10.5645H10.5484H10.5323H10.5161H10.5H10.4839H10.4678H10.4517H10.4356H10.4195H10.4034H10.3872H10.3711H10.355H10.3389H10.3228H10.3067H10.2906H10.2745H10.2583H10.2422H10.2261H10.21H10.1939H10.1778H10.1617H10.1456H10.1294H10.1133H10.0972H10.0811H10.065H10.0489H10.0328H10.0167H10.0005H9.98444H9.96832H9.95221H9.9361H9.91999H9.90388H9.88776H9.87165H9.85554H9.83943H9.82332H9.8072H9.79109H9.77498H9.75887H9.74275H9.72664H9.71053H9.69442H9.67831H9.66219H9.64608H9.62997H9.61386H9.59774H9.58163H9.56552H9.54941H9.5333H9.51718H9.50107H9.48496H9.46885H9.45273H9.43662H9.42051H9.4044H9.38829H9.37217H9.35606H9.33995H9.32384H9.30772H9.29161H9.2755H9.25939H9.24328H9.22716H9.21105H9.19494H9.17883H9.16272H9.1466H9.13049H9.11438H9.09827H9.08215H9.06604H9.04993H9.03382H9.01771H9.00159H8.98548H8.96937H8.95326H8.93714H8.92103H8.90492H8.88881H8.8727H8.85658H8.84047H8.82436H8.80825H8.79214H8.77602H8.75991H8.7438H8.72769H8.71157H8.69546H8.67935H8.66324H8.64713H8.63101H8.6149H8.59879H8.58268H8.56656H8.55045H8.53434H8.51823H8.50212H8.486H8.46989H8.45378H8.43767H8.42156H8.40544H8.38933H8.37322H8.35711H8.34099H8.32488H8.30877H8.29266H8.27655H8.26043H8.24432H8.22821H8.2121H8.19598H8.17987H8.16376H8.14765H8.13154H8.11542H8.09931H8.0832H8.06709H8.05097H8.03486H8.01875H8.00264H7.98653H7.97041H7.9543H7.93819H7.92208H7.90597H7.88985H7.87374H7.85763H7.84152H7.8254H7.80929H7.79318H7.77707H7.76096H7.74484H7.72873H7.71262H7.69651H7.68039H7.66428H7.64817H7.63206H7.61595H7.59983H7.58372H7.56761H7.5515H7.53538H7.51927H7.50316H7.48705H7.47094H7.45482H7.43871H7.4226H7.40649H7.39038H7.37426H7.35815H7.34204H7.32593H7.30981H7.2937H7.27759H7.26148H7.24537H7.22925H7.21314H7.19703H7.18092H7.1648H7.14869H7.13258H7.11647H7.10036H7.08424H7.06813H7.05202H7.03591H7.01979H7.00368H6.98757H6.97146H6.95535H6.93923H6.92312H6.90701H6.8909H6.87479H6.85867H6.84256H6.82645H6.81034H6.79422H6.77811H6.762H6.74589H6.72978H6.71366H6.69755H6.68144H6.66533H6.64921H6.6331H6.61699H6.60088H6.58477H6.56865H6.55254H6.53643H6.52032H6.5042H6.48809H6.47198H6.45587H6.43976H6.42364H6.40753H6.39142H6.37531H6.3592H6.34308H6.32697H6.31086H6.29475H6.27863H6.26252H6.24641H6.2303H6.21419H6.19807H6.18196H6.16585H6.14974H6.13362H6.11751H6.1014H6.08529H6.06918H6.05306H6.03695H6.02084H6.00473H5.98862H5.9725H5.95639H5.94028H5.92417H5.90805H5.89194H5.87583H5.85972H5.84361H5.82749H5.81138H5.79527H5.77916H5.76304H5.74693H5.73082H5.71471H5.6986H5.68248H5.66637H5.65026H5.63415H5.61803H5.60192H5.58581H5.5697H5.55359H5.53747H5.52136H5.50525H5.48914H5.47303H5.45691H5.4408H5.42469H5.40858H5.39246H5.37635H5.36024H5.34413H5.32802H5.3119H5.29579H5.27968H5.26357H5.24745H5.23134H5.21523H5.19912H5.18301H5.16689H5.15078H5.13467H5.11856H5.10244H5.08633H5.07022H5.05411H5.038H5.02188H5.00577H4.98966H4.97355H4.95744H4.94132H4.92521H4.9091H4.89299H4.87687H4.86076C4.84892 10.7595 4.83666 10.7595 4.82407 10.7594M13.7933 11.2137L4.82407 10.7594M4.82407 10.7594C4.70559 10.7589 4.5569 10.7582 4.43545 10.8023M4.82407 10.7594L4.43545 10.8023M4.43545 10.8023C4.3643 10.8282 4.2967 10.8709 4.24708 10.9412M4.43545 10.8023L4.24708 10.9412M4.24708 10.9412C4.1977 11.0111 4.17239 11.0993 4.16978 11.2054L4.24708 10.9412Z" fill="#FA8B02" stroke="#FA8B02" stroke-width="0.2"/>
<path d="M4.74962 13.9328L4.74961 13.9329H4.75286H4.75318H4.75351H4.75384H4.75417H4.7545H4.75483H4.75516H4.75549H4.75582H4.75615H4.75648H4.75681H4.75713H4.75746H4.75779H4.75812H4.75845H4.75878H4.75911H4.75944H4.75977H4.7601H4.76043H4.76076H4.76108H4.76141H4.76174H4.76207H4.7624H4.76273H4.76306H4.76339H4.76372H4.76405H4.76438H4.76471H4.76503H4.76536H4.76569H4.76602H4.76635H4.76668H4.76701H4.76734H4.76767H4.768H4.76833H4.76866H4.76898H4.76931H4.76964H4.76997H4.7703H4.77063H4.77096H4.77129H4.77162H4.77195H4.77228H4.77261H4.77293H4.77326H4.77359H4.77392H4.77425H4.77458H4.77491H4.77524H4.77557H4.7759H4.77623H4.77656H4.77689H4.77721H4.77754H4.77787H4.7782H4.77853H4.77886H4.77919H4.77952H4.77985H4.78018H4.78051H4.78084H4.78116H4.78149H4.78182H4.78215H4.78248H4.78281H4.78314H4.78347H4.7838H4.78413H4.78446H4.78479H4.78511H4.78544H4.78577H4.7861H4.78643H4.78676H4.78709H4.78742H4.78775H4.78808H4.78841H4.78874H4.78906H4.78939H4.78972H4.79005H4.79038H4.79071H4.79104H4.79137H4.7917H4.79203H4.79236H4.79269H4.79301H4.79334H4.79367H4.794H4.79433H4.79466H4.79499H4.79532H4.79565H4.79598H4.79631H4.79664H4.79697H4.79729H4.79762H4.79795H4.79828H4.79861H4.79894H4.79927H4.7996H4.79993H4.80026H4.80059H4.80092H4.80124H4.80157H4.8019H4.80223H4.80256H4.80289H4.80322H4.80355H4.80388H4.80421H4.80454H4.80487H4.80519H4.80552H4.80585H4.80618H4.80651H4.80684H4.80717H4.8075H4.80783H4.80816H4.80849H4.80882H4.80914H4.80947H4.8098H4.81013H4.81046H4.81079H4.81112H4.81145H4.81178H4.81211H4.81244H4.81277H4.81309H4.81342H4.81375H4.81408H4.81441H4.81474H4.81507H4.8154H4.81573H4.81606H4.81639H4.81672H4.81704H4.81737H4.8177H4.81803H4.81836H4.81869H4.81902H4.81935H4.81968H4.82001H4.82034H4.82067H4.821H4.82132H4.82165H4.82198H4.82231H4.82264H4.82297H4.8233H4.82363H4.82396H4.82429H4.82462H4.82495H4.82527H4.8256H4.82593H4.82626H4.82659H4.82692H4.82725H4.82758H4.82791H4.82824H4.82857H4.8289H4.82922H4.82955H4.82988H4.83021H4.83054H4.83087H4.8312H4.83153H4.83186H4.83219H4.83252H4.83285H4.83317H4.8335H4.83383H4.83416H4.83449H4.83482H4.83515H4.83548H4.83581H4.83614H4.83647H4.8368H4.83712H4.83745H4.83778H4.83811H4.83844H4.83877H4.8391H4.83943H4.83976H4.84009H4.84042H4.84075H4.84107H4.8414H4.84173H4.84206H4.84239H4.84272H4.84305H4.84338H4.84371H4.84404H4.84437H4.8447H4.84503H4.84535H4.84568H4.84601H4.84634H4.84667H4.847H4.84733H4.84766H4.84799H4.84832H4.84865H4.84898H4.8493H4.84963H4.84996H4.85029H4.85062H4.85095H4.85128H4.85161H4.85194H4.85227H4.8526H4.85293H4.85325H4.85358H4.85391H4.85424H4.85457H4.8549H4.85523H4.85556H4.85589H4.85622H4.85655H4.85688H4.8572H4.85753H4.85786H4.85819H4.85852H4.85885H4.85918H4.85951H4.85984H4.86017H4.8605H4.86083H4.86115H4.86148H4.86181H4.86214H4.86247H4.8628H4.86313H4.86346H4.86379H4.86412H4.86445H4.86478H4.8651H4.86543H4.86576H4.86609H4.86642H4.86675H4.86708H4.86741H4.86774H4.86807H4.8684H4.86873H4.86906H4.86938H4.86971H4.87004H4.87037H4.8707H4.87103H4.87136H4.87169H4.87202H4.87235H4.87268H4.87301H4.87333H4.87366H4.87399H4.87432H4.87465H4.87498H4.87531H4.87564H4.87597H4.8763H4.87663H4.87696H4.87728H4.87761H4.87794H4.87827H4.8786H4.87893H4.87926H4.87959H4.87992H4.88025H4.88058H4.88091H4.88123H4.88156H4.88189H4.88222H4.88255H4.88288H4.88321H4.88354H4.88387H4.8842H4.88453H4.88486H4.88518H4.88551H4.88584H4.88617H4.8865H4.88683H4.88716H4.88749H4.88782H4.88815H4.88848H4.88881H4.88913H4.88946H4.88979H4.89012H4.89045H4.89078H4.89111H4.89144H4.89177H4.8921H4.89243H4.89276H4.89309H4.89341H4.89374H4.89407H4.8944H4.89473H4.89506H4.89539H4.89572H4.89605H4.89638H4.89671H4.89704H4.89736H4.89769H4.89802H4.89835H4.89868H4.89901H4.89934H4.89967H4.9H4.90033H4.90066H4.90099H4.90131H4.90164H4.90197H4.9023H4.90263H4.90296H4.90329H4.90362H4.90395H4.90428H4.90461H4.90494H4.90526H4.90559H4.90592H4.90625H4.90658H4.90691H4.90724H4.90757H4.9079H4.90823H4.90856H4.90889H4.90921H4.90954H4.90987H4.9102H4.91053H4.91086H4.91119H4.91152H4.91185H4.91218H4.91251H4.91284H4.91316H4.91349H4.91382H4.91415H4.91448H4.91481H4.91514H4.91547H4.9158H4.91613H4.91646H4.91679H4.91712H4.91744H4.91777H4.9181H4.91843H4.91876H4.91909H4.91942H4.91975H4.92008H4.92041H4.92074H4.92107H4.92139H4.9373H4.9532H4.9691H4.985H5.0009H5.0168H5.03271H5.04861H5.06451H5.08041H5.09631H5.11221H5.12811H5.14402H5.15992H5.17582H5.19172H5.20762H5.22352H5.23942H5.25533H5.27123H5.28713H5.30303H5.31893H5.33483H5.35074H5.36664H5.38254H5.39844H5.41434H5.43024H5.44614H5.46205H5.47795H5.49385H5.50975H5.52565H5.54155H5.55745H5.57336H5.58926H5.60516H5.62106H5.63696H5.65286H5.66877H5.68467H5.70057H5.71647H5.73237H5.74827H5.76417H5.78008H5.79598H5.81188H5.82778H5.84368H5.85958H5.87549H5.89139H5.90729H5.92319H5.93909H5.95499H5.97089H5.9868H6.0027H6.0186H6.0345H6.0504H6.0663H6.0822H6.09811H6.11401H6.12991H6.14581H6.16171H6.17761H6.19352H6.20942H6.22532H6.24122H6.25712H6.27302H6.28892H6.30483H6.32073H6.33663H6.35253H6.36843H6.38433H6.40023H6.41614H6.43204H6.44794H6.46384H6.47974H6.49564H6.51155H6.52745H6.54335H6.55925H6.57515H6.59105H6.60695H6.62286H6.63876H6.65466H6.67056H6.68646H6.70236H6.71827H6.73417H6.75007H6.76597H6.78187H6.79777H6.81367H6.82958H6.84548H6.86138H6.87728H6.89318H6.90908H6.92498H6.94089H6.95679H6.97269H6.98859H7.00449H7.02039H7.0363H7.0522H7.0681H7.084H7.0999H7.1158H7.1317H7.14761H7.16351H7.17941H7.19531H7.21121H7.22711H7.24301H7.25892H7.27482H7.29072H7.30662H7.32252H7.33842H7.35433H7.37023H7.38613H7.40203H7.41793H7.43383H7.44973H7.46564H7.48154H7.49744H7.51334H7.52924H7.54514H7.56105H7.57695H7.59285H7.60875H7.62465H7.64055H7.65645H7.67236H7.68826H7.70416H7.72006H7.73596H7.75186H7.76776H7.78367H7.79957H7.81547H7.83137H7.84727H7.86317H7.87908H7.89498H7.91088H7.92678H7.94268H7.95858H7.97448H7.99039H8.00629H8.02219H8.03809H8.05399H8.06989H8.08579H8.1017H8.1176H8.1335H8.1494H8.1653H8.1812H8.19711H8.21301H8.22891H8.24481H8.26071H8.27661H8.29251H8.30842H8.32432H8.34022H8.35612H8.37202H8.38792H8.40383H8.41973H8.43563H8.45153H8.46743H8.48333H8.49923H8.51514H8.53104H8.54694H8.56284H8.57874H8.59464H8.61054H8.62645H8.64235H8.65825H8.67415H8.69005H8.70595H8.72186H8.73776H8.75366H8.76956H8.78546H8.80136H8.81726H8.83317H8.84907H8.86497H8.88087H8.89677H8.91267H8.92858H8.94448H8.96038H8.97628H8.99218H9.00808H9.02398H9.03989H9.05579H9.07169H9.08759H9.10349H9.11939H9.13529H9.1512H9.1671H9.183H9.1989H9.2148H9.2307H9.2466H9.26251H9.27841H9.29431H9.31021H9.32611H9.34201H9.35792H9.37382H9.38972H9.40562H9.42152H9.43742H9.45332H9.46923H9.48513H9.50103H9.51693H9.53283H9.54873H9.56464H9.58054H9.59644H9.61234H9.62824H9.64414H9.66004H9.67595H9.69185H9.70775H9.72365H9.73955H9.75545H9.77135H9.78726H9.80316H9.81906H9.83496H9.85086H9.86676H9.88267H9.89857H9.91447H9.93037H9.94627H9.96217H9.97807H9.99398H10.0099H10.0258H10.0417H10.0576H10.0735H10.0894H10.1053H10.1212H10.1371H10.153H10.1689H10.1848H10.2007H10.2166H10.2325H10.2484H10.2643H10.2802H10.2961H10.312H10.3279H10.3438H10.3597H10.3756H10.3915H10.4074H10.4233H10.4392H10.4551H10.471H10.4869H10.5028H10.5187H10.5346H10.5505H10.5664H10.5823H10.5982H10.6141H10.63H10.6459H10.6618H10.6777H10.6936H10.7095H10.7254H10.7413H10.7572H10.7731H10.7891H10.805H10.8209H10.8368H10.8527H10.8686H10.8845H10.9004H10.9163H10.9322H10.9481H10.964H10.9799H10.9958H11.0117H11.0276H11.0435H11.0594H11.0753H11.0912H11.1071H11.123H11.1389H11.1548H11.1707H11.1866H11.2025H11.2184H11.2343H11.2502H11.2661H11.282H11.2979H11.3138H11.3297H11.3456H11.3615H11.3774H11.3933H11.4092H11.4251H11.441H11.4569H11.4728H11.4887H11.5046H11.5205H11.5364H11.5523H11.5682H11.5841H11.6H11.6159H11.6318H11.6477H11.6636H11.6795H11.6954H11.7113H11.7272H11.7431H11.759H11.7749H11.7908H11.8067H11.8226H11.8386H11.8545H11.8704H11.8863H11.9022H11.9181H11.934H11.9499H11.9658H11.9817H11.9976H12.0135H12.0294H12.0453H12.0612H12.0771H12.093H12.1089H12.1248H12.1407H12.1566H12.1725H12.1884H12.2043H12.2202H12.2361H12.252H12.2679H12.2838H12.2997H12.3156H12.3315H12.3474H12.3633H12.3792H12.3951H12.411H12.4269H12.4428H12.4587H12.4746H12.4905H12.5064H12.5223H12.5382H12.5541H12.57H12.5859H12.6018H12.6177H12.6336H12.6495H12.6654H12.6813H12.6972H12.7131H12.729H12.7449H12.7608H12.7767H12.7926H12.8085H12.8244H12.8403H12.8562H12.8721H12.8881H12.904H12.9199H12.9358H12.9517H12.9676H12.9835H12.9994H13.0153H13.0312H13.0471H13.063C13.0854 13.9329 13.1103 13.9333 13.1363 13.9336C13.1833 13.9344 13.2341 13.9351 13.2811 13.9338C13.3565 13.9318 13.4376 13.9245 13.5127 13.9006C13.5893 13.8763 13.6629 13.8335 13.7171 13.759C13.7708 13.6851 13.7983 13.5899 13.8011 13.4736C13.804 13.3576 13.7817 13.2612 13.7318 13.1852C13.6814 13.1084 13.6097 13.0629 13.534 13.0363C13.46 13.0103 13.3791 13.0013 13.3035 12.998C13.2496 12.9956 13.193 12.9961 13.141 12.9966C13.1209 12.9968 13.1015 12.9969 13.0832 12.9969H13.0753H13.0674H13.0595H13.0516H13.0437H13.0358H13.0279H13.02H13.0121H13.0042H12.9963H12.9884H12.9805H12.9726H12.9647H12.9568H12.9489H12.941H12.9331H12.9252H12.9173H12.9094H12.9015H12.8936H12.8857H12.8778H12.8699H12.862H12.8541H12.8462H12.8383H12.8304H12.8225H12.8146H12.8067H12.7988H12.7909H12.783H12.7751H12.7672H12.7593H12.7514H12.7435H12.7356H12.7277H12.7198H12.7119H12.704H12.6961H12.6882H12.6803H12.6724H12.6645H12.6566H12.6487H12.6408H12.6329H12.625H12.6171H12.6092H12.6013H12.5934H12.5855H12.5776H12.5697H12.5618H12.5539H12.546H12.5381H12.5302H12.5223H12.5144H12.5065H12.4986H12.4907H12.4828H12.4749H12.467H12.4591H12.4512H12.4433H12.4354H12.4275H12.4196H12.4117H12.4038H12.3959H12.388H12.3801H12.3722H12.3643H12.3564H12.3485H12.3406H12.3327H12.3248H12.3169H12.309H12.3011H12.2932H12.2853H12.2774H12.2695H12.2616H12.2537H12.2458H12.2379H12.23H12.2221H12.2142H12.2063H12.1984H12.1905H12.1826H12.1747H12.1668H12.1589H12.151H12.1431H12.1352H12.1273H12.1194H12.1115H12.1036H12.0957H12.0878H12.0799H12.072H12.0641H12.0562H12.0483H12.0404H12.0325H12.0246H12.0167H12.0088H12.0009H11.993H11.9851H11.9772H11.9693H11.9614H11.9535H11.9456H11.9377H11.9298H11.9219H11.914H11.9061H11.8981H11.8902H11.8823H11.8744H11.8665H11.8586H11.8507H11.8428H11.8349H11.827H11.8191H11.8112H11.8033H11.7954H11.7875H11.7796H11.7717H11.7638H11.7559H11.748H11.7401H11.7322H11.7243H11.7164H11.7085H11.7006H11.6927H11.6848H11.6769H11.669H11.6611H11.6532H11.6453H11.6374H11.6295H11.6216H11.6137H11.6058H11.5979H11.59H11.5821H11.5742H11.5663H11.5584H11.5505H11.5426H11.5347H11.5268H11.5189H11.511H11.5031H11.4952H11.4873H11.4794H11.4715H11.4636H11.4557H11.4478H11.4399H11.432H11.4241H11.4162H11.4083H11.4004H11.3925H11.3846H11.3767H11.3688H11.3609H11.353H11.3451H11.3372H11.3293H11.3214H11.3135H11.3056H11.2977H11.2898H11.2819H11.274H11.2661H11.2582H11.2503H11.2424H11.2345H11.2266H11.2187H11.2108H11.2029H11.195H11.1871H11.1792H11.1713H11.1634H11.1555H11.1476H11.1397H11.1318H11.1239H11.116H11.1081H11.1002H11.0923H11.0844H11.0765H11.0686H11.0607H11.0528H11.0449H11.037H11.0291H11.0212H11.0133H11.0054H10.9975H10.9896H10.9817H10.9738H10.9659H10.958H10.9501H10.9422H10.9343H10.9264H10.9185H10.9106H10.9027H10.8948H10.8869H10.879H10.8711H10.8632H10.8553H10.8474H10.8395H10.8316H10.8237H10.8158H10.8079H10.8H10.7921H10.7842H10.7763H10.7684H10.7605H10.7526H10.7447H10.7368H10.7289H10.721H10.7131H10.7052H10.6973H10.6894H10.6815H10.6736H10.6657H10.6578H10.6499H10.642H10.6341H10.6262H10.6183H10.6104H10.6025H10.5946H10.5867H10.5788H10.5709H10.563H10.5551H10.5472H10.5393H10.5314H10.5235H10.5156H10.5077H10.4998H10.4919H10.484H10.4761H10.4682H10.4603H10.4524H10.4445H10.4366H10.4287H10.4208H10.4129H10.405H10.3971H10.3892H10.3813H10.3734H10.3655H10.3576H10.3497H10.3418H10.3339H10.326H10.3181H10.3102H10.3023H10.2944H10.2865H10.2786H10.2707H10.2628H10.2549H10.247H10.2391H10.2312H10.2233H10.2154H10.2075H10.1996H10.1917H10.1838H10.1759H10.168H10.1601H10.1522H10.1443H10.1364H10.1285H10.1206H10.1127H10.1048H10.0969H10.089H10.0811H10.0732H10.0653H10.0574H10.0495H10.0416H10.0337H10.0258H10.0179H10.01H10.0021H9.99418H9.98628H9.97838H9.97048H9.96258H9.95468H9.94678H9.93888H9.93098H9.92308H9.91518H9.90728H9.89938H9.89148H9.88358H9.87568H9.86778H9.85988H9.85198H9.84408H9.83618H9.82828H9.82038H9.81248H9.80458H9.79668H9.78878H9.78088H9.77297H9.76507H9.75717H9.74927H9.74137H9.73347H9.72557H9.71767H9.70977H9.70187H9.69397H9.68607H9.67817H9.67027H9.66237H9.65447H9.64657H9.63867H9.63077H9.62287H9.61497H9.60707H9.59917H9.59127H9.58337H9.57547H9.56757H9.55967H9.55177H9.54387H9.53597H9.52807H9.52017H9.51227H9.50436H9.49646H9.48856H9.48066H9.47276H9.46486H9.45696H9.44906H9.44116H9.43326H9.42536H9.41746H9.40956H9.40166H9.39376H9.38586H9.37796H9.37006H9.36216H9.35426H9.34636H9.33846H9.33056H9.32266H9.31476H9.30686H9.29896H9.29106H9.28316H9.27526H9.26736H9.25946H9.25156H9.24366H9.23576H9.22786H9.21995H9.21205H9.20415H9.19625H9.18835H9.18045H9.17255H9.16465H9.15675H9.14885H9.14095H9.13305H9.12515H9.11725H9.10935H9.10145H9.09355H9.08565H9.07775H9.06985H9.06195H9.05405H9.04615H9.03825H4.77308C4.63794 12.9969 4.48602 13.0096 4.36752 13.0784C4.30578 13.1143 4.25301 13.1654 4.21743 13.2357C4.18225 13.3052 4.16684 13.3875 4.16976 13.482L4.16976 13.4821C4.17526 13.6589 4.25256 13.7782 4.37376 13.8479C4.48558 13.9123 4.62522 13.9288 4.74962 13.9328Z" fill="#FA8B02" stroke="#FA8B02" stroke-width="0.2"/>
<path d="M4.17544 8.95591L4.17544 8.95591C4.17068 9.07363 4.19153 9.17138 4.24064 9.24863C4.29039 9.32689 4.36213 9.37307 4.43796 9.39988C4.51203 9.42607 4.59292 9.43489 4.66801 9.43798C4.7202 9.44012 4.77518 9.43955 4.82549 9.43903C4.84647 9.43881 4.86665 9.43861 4.88547 9.43861H4.89333H4.90118H4.90904H4.91689H4.92475H4.9326H4.94046H4.94831H4.95617H4.96403H4.97188H4.97974H4.98759H4.99545H5.00331H5.01116H5.01902H5.02688H5.03474H5.04259H5.05045H5.05831H5.06617H5.07403H5.08188H5.08974H5.0976H5.10546H5.11332H5.12118H5.12904H5.1369H5.14476H5.15262H5.16048H5.16834H5.1762H5.18406H5.19192H5.19978H5.20764H5.21551H5.22337H5.23123H5.23909H5.24695H5.25481H5.26268H5.27054H5.2784H5.28626H5.29413H5.30199H5.30985H5.31772H5.32558H5.33345H5.34131H5.34917H5.35704H5.3649H5.37277H5.38063H5.3885H5.39636H5.40423H5.41209H5.41996H5.42782H5.43569H5.44355H5.45142H5.45929H5.46715H5.47502H5.48289H5.49075H5.49862H5.50649H5.51436H5.52222H5.53009H5.53796H5.54583H5.5537H5.56156H5.56943H5.5773H5.58517H5.59304H5.60091H5.60878H5.61665H5.62452H5.63239H5.64025H5.64812H5.65599H5.66387H5.67174H5.67961H5.68748H5.69535H5.70322H5.71109H5.71896H5.72683H5.7347H5.74258H5.75045H5.75832H5.76619H5.77406H5.78194H5.78981H5.79768H5.80555H5.81343H5.8213H5.82917H5.83705H5.84492H5.85279H5.86067H5.86854H5.87641H5.88429H5.89216H5.90004H5.90791H5.91579H5.92366H5.93154H5.93941H5.94729H5.95516H5.96304H5.97091H5.97879H5.98667H5.99454H6.00242H6.01029H6.01817H6.02605H6.03392H6.0418H6.04968H6.05755H6.06543H6.07331H6.08119H6.08906H6.09694H6.10482H6.1127H6.12057H6.12845H6.13633H6.14421H6.15209H6.15997H6.16785H6.17572H6.1836H6.19148H6.19936H6.20724H6.21512H6.223H6.23088H6.23876H6.24664H6.25452H6.2624H6.27028H6.27816H6.28604H6.29392H6.3018H6.30968H6.31757H6.32545H6.33333H6.34121H6.34909H6.35697H6.36486H6.37274H6.38062H6.3885H6.39638H6.40427H6.41215H6.42003H6.42791H6.4358H6.44368H6.45156H6.45944H6.46733H6.47521H6.4831H6.49098H6.49886H6.50675H6.51463H6.52251H6.5304H6.53828H6.54617H6.55405H6.56194H6.56982H6.5777H6.58559H6.59347H6.60136H6.60924H6.61713H6.62502H6.6329H6.64079H6.64867H6.65656H6.66444H6.67233H6.68022H6.6881H6.69599H6.70387H6.71176H6.71965H6.72753H6.73542H6.74331H6.75119H6.75908H6.76697H6.77486H6.78274H6.79063H6.79852H6.80641H6.81429H6.82218H6.83007H6.83796H6.84584H6.85373H6.86162H6.86951H6.8774H6.88529H6.89318H6.90106H6.90895H6.91684H6.92473H6.93262H6.94051H6.9484H6.95629H6.96418H6.97207H6.97996H6.98785H6.99574H7.00363H7.01152H7.01941H7.0273H7.03519H7.04308H7.05097H7.05886H7.06675H7.07464H7.08253H7.09042H7.09831H7.1062H7.11409H7.12198H7.12987H7.13777H7.14566H7.15355H7.16144H7.16933H7.17722H7.18512H7.19301H7.2009H7.20879H7.21668H7.22457H7.23247H7.24036H7.24825H7.25614H7.26404H7.27193H7.27982H7.28771H7.29561H7.3035H7.31139H7.31929H7.32718H7.33507H7.34297H7.35086H7.35875H7.36665H7.37454H7.38243H7.39033H7.39822H7.40611H7.41401H7.4219H7.4298H7.43769H7.44558H7.45348H7.46137H7.46927H7.47716H7.48505H7.49295H7.50084H7.50874H7.51663H7.52453H7.53242H7.54032H7.54821H7.55611H7.564H7.5719H7.57979H7.58769H7.59558H7.60348H7.61137H7.61927H7.62717H7.63506H7.64296H7.65085H7.65875H7.66664H7.67454H7.68244H7.69033H7.69823H7.70612H7.71402H7.72192H7.72981H7.73771H7.7456H7.7535H7.7614H7.76929H7.77719H7.78509H7.79298H7.80088H7.80878H7.81667H7.82457H7.83247H7.84036H7.84826H7.85616H7.86406H7.87195H7.87985H7.88775H7.89564H7.90354H7.91144H7.91934H7.92723H7.93513H7.94303H7.95093H7.95882H7.96672H7.97462H7.98252H7.99042H7.99831H8.00621H8.01411H8.02201H8.02991H8.0378H8.0457H8.0536H8.0615H8.0694H8.07729H8.08519H8.09309H8.10099H8.10889H8.11679H8.12468H8.13258H8.14048H8.14838H8.15628H8.16418H8.17208H8.17998H8.18787H8.19577H8.20367H8.21157H8.21947H8.22737H8.23527H8.24317H8.25106H8.25896H8.26686H8.27476H8.28266H8.29056H8.29846H8.30636H8.31426H8.32216H8.33006H8.33796H8.34586H8.35375H8.36165H8.36955H8.37745H8.38535H8.39325H8.40115H8.40905H8.41695H8.42485H8.43275H8.44065H8.44855H8.45645H8.46435H8.47225H8.48015H8.48805H8.49595H8.50385H8.51175H8.51965H8.52755H8.53545H8.54335H8.55125H8.55915H8.56705H8.57495H8.58285H8.59074H8.59865H8.60654H8.61445H8.62234H8.63025H8.63815H8.64605H8.65395H8.66185H8.66975H8.67765H8.68555H8.69345H8.70135H8.70925H8.71715H8.72505H8.73295H8.74085H8.74875H8.75665H8.76455H8.77245H8.78035H8.78825H8.79615H8.80405H8.81195H8.81985H8.82775H8.83565H8.84355H8.85145H8.85935H8.86725H8.87515H8.88305H8.89095H8.89885H8.90675H8.91465H8.92255C10.3247 9.43861 11.7257 9.44085 13.1279 9.44422L13.1286 9.44422C13.1332 9.4442 13.1379 9.44418 13.1426 9.44417C13.2659 9.44372 13.4253 9.44314 13.553 9.39064C13.6229 9.36188 13.6882 9.31599 13.7341 9.24349C13.7797 9.17145 13.8004 9.08221 13.7978 8.97659C13.7952 8.87131 13.7708 8.78338 13.7231 8.71318C13.6751 8.64249 13.6093 8.59823 13.5391 8.57085C13.4145 8.52233 13.2612 8.52261 13.1389 8.52284C13.1307 8.52286 13.1226 8.52287 13.1147 8.52287H4.87199C4.85796 8.52287 4.84328 8.52277 4.82809 8.52267C4.7131 8.52189 4.56861 8.5209 4.44954 8.56151C4.37823 8.58584 4.30953 8.62667 4.25822 8.69517C4.20697 8.76358 4.1797 8.8507 4.17544 8.95591Z" fill="#FA8B02" stroke="#FA8B02" stroke-width="0.2"/>
<path d="M4.27426 6.70793L4.17452 6.70078C4.16741 6.79991 4.18109 6.88558 4.21796 6.95682C4.25539 7.02914 4.31235 7.07815 4.37663 7.11038C4.49806 7.17128 4.65368 7.17535 4.77763 7.17535H4.78551H4.79338H4.80125H4.80913H4.817H4.82488H4.83275H4.84062H4.8485H4.85637H4.86425H4.87212H4.87999H4.88787H4.89574H4.90362H4.91149H4.91936H4.92724H4.93511H4.94299H4.95086H4.95873H4.96661H4.97448H4.98236H4.99023H4.9981H5.00598H5.01385H5.02172H5.0296H5.03747H5.04535H5.05322H5.06109H5.06897H5.07684H5.08472H5.09259H5.10046H5.10834H5.11621H5.12409H5.13196H5.13983H5.14771H5.15558H5.16346H5.17133H5.1792H5.18708H5.19495H5.20283H5.2107H5.21857H5.22645H5.23432H5.2422H5.25007H5.25794H5.26582H5.27369H5.28157H5.28944H5.29731H5.30519H5.31306H5.32093H5.32881H5.33668H5.34456H5.35243H5.3603H5.36818H5.37605H5.38393H5.3918H5.39967H5.40755H5.41542H5.4233H5.43117H5.43904H5.44692H5.45479H5.46267H5.47054H5.47841H5.48629H5.49416H5.50204H5.50991H5.51778H5.52566H5.53353H5.54141H5.54928H5.55715H5.56503H5.5729H5.58078H5.58865H5.59652H5.6044H5.61227H5.62014H5.62802H5.63589H5.64377H5.65164H5.65951H5.66739H5.67526H5.68314H5.69101H5.69888H5.70676H5.71463H5.72251H5.73038H5.73825H5.74613H5.754H5.76188H5.76975H5.77762H5.7855H5.79337H5.80125H5.80912H5.81699H5.82487H5.83274H5.84062H5.84849H5.85636H5.86424H5.87211H5.87998H5.88786H5.89573H5.90361H5.91148H5.91935H5.92723H5.9351H5.94298H5.95085H5.95872H5.9666H5.97447H5.98235H5.99022H5.99809H6.00597H6.01384H6.02172H6.02959H6.03746H6.04534H6.05321H6.06109H6.06896H6.07683H6.08471H6.09258H6.10046H6.10833H6.1162H6.12408H6.13195H6.13983H6.1477H6.15557H6.16345H6.17132H6.17919H6.18707H6.19494H6.20282H6.21069H6.21856H6.22644H6.23431H6.24219H6.25006H6.25793H6.26581H6.27368H6.28156H6.28943H6.2973H6.30518H6.31305H6.32093H6.3288H6.33667H6.34455H6.35242H6.3603H6.36817H6.37604H6.38392H6.39179H6.39967H6.40754H6.41541H6.42329H6.43116H6.43904H6.44691H6.45478H6.46266H6.47053H6.4784H6.48628H6.49415H6.50203H6.5099H6.51777H6.52565H6.53352H6.5414H6.54927H6.55714H6.56502H6.57289H6.58077H6.58864H6.59651H6.60439H6.61226H6.62014H6.62801H6.63588H6.64376H6.65163H6.65951H6.66738H6.67525H6.68313H6.691H6.69888H6.70675H6.71462H6.7225H6.73037H6.73825H6.74612H6.75399H6.76187H6.76974H6.77761H6.78549H6.79336H6.80124H6.80911H6.81698H6.82486H6.83273H6.84061H6.84848H6.85635H6.86423H6.8721H6.87998H6.88785H6.89572H6.9036H6.91147H6.91935H6.92722H6.93509H6.94297H6.95084H6.95872H6.96659H6.97446H6.98234H6.99021H6.99809H7.00596H7.01383H7.02171H7.02958H7.03745H7.04533H7.0532H7.06108H7.06895H7.07682H7.0847H7.09257H7.10045H7.10832H7.11619H7.12407H7.13194H7.13982H7.14769H7.15556H7.16344H7.17131H7.17919H7.18706H7.19493H7.20281H7.21068H7.21856H7.22643H7.2343H7.24218H7.25005H7.25793H7.2658H7.27367H7.28155H7.28942H7.2973H7.30517H7.31304H7.32092H7.32879H7.33666H7.34454H7.35241H7.36029H7.36816H7.37603H7.38391H7.39178H7.39966H7.40753H7.4154H7.42328H7.43115H7.43903H7.4469H7.45477H7.46265H7.47052H7.4784H7.48627H7.49414H7.50202H7.50989H7.51777H7.52564H7.53351H7.54139H7.54926H7.55714H7.56501H7.57288H7.58076H7.58863H7.5965H7.60438H7.61225H7.62013H7.628H7.63587H7.64375H7.65162H7.6595H7.66737H7.67524H7.68312H7.69099H7.69887H7.70674H7.71461H7.72249H7.73036H7.73824H7.74611H7.75398H7.76186H7.76973H7.77761H7.78548H7.79335H7.80123H7.8091H7.81698H7.82485H7.83272H7.8406H7.84847H7.85635H7.86422H7.87209H7.87997H7.88784H7.89571H7.90359H7.91146H7.91934H7.92721H7.93508H7.94296H7.95083H7.95871H7.96658H7.97445H7.98233H7.9902H7.99808H8.00595H8.01382H8.0217H8.02957H8.03745H8.04532H8.05319H8.06107H8.06894H8.07682H8.08469H8.09256H8.10044H8.10831H8.11619H8.12406H8.13193H8.13981H8.14768H8.15556H8.16343H8.1713H8.17918H8.18705H8.19492H8.2028H8.21067H8.21855H8.22642H8.23429H8.24217H8.25004H8.25792H8.26579H8.27366H8.28154H8.28941H8.29729H8.30516H8.31303H8.32091H8.32878H8.33666H8.34453H8.3524H8.36028H8.36815H8.37603H8.3839H8.39177H8.39965H8.40752H8.4154H8.42327H8.43114H8.43902H8.44689H8.45476H8.46264H8.47051H8.47839H8.48626H8.49413H8.50201H8.50988H8.51776H8.52563H8.5335H8.54138H8.54925H8.55713H8.565H8.57287H8.58075H8.58862H8.5965H8.60437H8.61224H8.62012H8.62799H8.63587H8.64374H8.65161H8.65949H8.66736H8.67524H8.68311H8.69098H8.69886H8.70673H8.71461H8.72248H8.73035H8.73823H8.7461H8.75397H8.76185H8.76972H8.7776H8.78547H8.79334H8.80122H8.80909C8.93545 7.17535 9.08853 7.16966 9.20982 7.10884C9.27354 7.07688 9.33022 7.02906 9.36936 6.95934C9.40807 6.8904 9.42563 6.80719 9.42368 6.71041C9.42173 6.6134 9.4005 6.53103 9.35846 6.46386C9.31602 6.39605 9.25699 6.35117 9.19222 6.32206C9.06937 6.26684 8.91627 6.26523 8.79336 6.26523L6.83269 6.26523L6.83241 6.26523L4.8179 6.27085C4.69043 6.26811 4.53961 6.27121 4.41631 6.32633C4.35184 6.35516 4.29295 6.3989 4.24904 6.46384C4.20536 6.52844 4.18074 6.60774 4.17448 6.70126L4.27426 6.70793ZM4.27426 6.70793C4.29561 6.38883 4.55965 6.36523 4.81696 6.37085L6.83269 6.36523H8.79336C9.0473 6.36523 9.31696 6.37759 9.3237 6.71243C9.33044 7.04726 9.06527 7.07535 8.80909 7.07535H4.77763C4.5237 7.07535 4.24954 7.05287 4.27426 6.70793Z" fill="#FA8B02" stroke="#FA8B02" stroke-width="0.2"/>
<path d="M18.1652 9.10751H18.1652C18.1616 9.24401 18.1311 9.381 18.05 9.48441C17.9647 9.59304 17.835 9.65011 17.6673 9.64409L17.6665 9.64406C17.509 9.63718 17.3939 9.57098 17.3225 9.46315C17.255 9.36127 17.2339 9.23337 17.2338 9.11189C17.2338 9.11178 17.2338 9.11168 17.2338 9.11157L18.1652 9.10751ZM18.1652 9.10751L18.1653 9.10642M18.1652 9.10751L18.1653 9.10642M18.1653 9.10642C18.169 8.86945 18.1678 8.6306 18.1665 8.39298C18.1659 8.27477 18.1653 8.15687 18.1653 8.03966C18.1653 7.80447 18.1663 7.56946 18.1673 7.3329C18.1678 7.21251 18.1683 7.09173 18.1686 6.97031L18.1687 6.97031L18.1686 6.96707C18.1649 6.84213 18.139 6.71572 18.0692 6.61602C17.9961 6.51147 17.8825 6.44764 17.7307 6.43871L17.7307 6.43869M18.1653 9.10642L17.7307 6.43869M17.7307 6.43869L17.7287 6.43862M17.7307 6.43869L17.7287 6.43862M17.7287 6.43862C17.5584 6.43199 17.427 6.48844 17.342 6.59825C17.2611 6.70264 17.2338 6.84062 17.2338 6.97674H17.3338L17.7287 6.43862Z" fill="#FA8B02" stroke="#FA8B02" stroke-width="0.2"/>
<path d="M17.3338 11.1123L17.2338 11.1114C17.227 11.8214 17.227 12.5318 17.2338 13.2425H17.2338L17.2338 13.2441C17.2368 13.3636 17.2586 13.4913 17.3264 13.5926C17.3986 13.7003 17.5144 13.7655 17.6739 13.7696L17.6739 13.7697L18.0653 13.2202L18.1652 13.2218C18.1652 13.2215 18.1652 13.2213 18.1653 13.221C18.169 12.9835 18.1677 12.7451 18.1665 12.5082C18.1659 12.3904 18.1653 12.2731 18.1653 12.1564C18.1653 12.1563 18.1653 12.1562 18.1653 12.1562L18.1697 11.1499H18.1697V11.1494C18.1697 11.0197 18.1531 10.8801 18.0871 10.7682C18.0163 10.6482 17.8966 10.5726 17.7236 10.5631C17.5506 10.5535 17.4203 10.6165 17.3379 10.7304C17.2601 10.8378 17.2338 10.9783 17.2338 11.1123H17.3338ZM17.3338 11.1123C17.327 11.8217 17.327 12.5315 17.3338 13.2416L18.0697 11.1494C18.0697 10.9011 18.0035 10.6786 17.7181 10.6629C17.4327 10.6472 17.3338 10.8652 17.3338 11.1123Z" fill="#FA8B02" stroke="#FA8B02" stroke-width="0.2"/>
</svg>
